<?xml version="1.0" encoding="utf-8"?>
<!-- Generator: Adobe Illustrator 19.2.1, SVG Export Plug-In . SVG Version: 6.00 Build 0)  -->
<svg version="1.1" id="Layer_1" xmlns="http://www.w3.org/2000/svg" xmlns:xlink="http://www.w3.org/1999/xlink" x="0px" y="0px"
	 viewBox="0 0 47.8 72.4" style="enable-background:new 0 0 47.8 72.4;" xml:space="preserve">
<g>
	<path d="M35,9.3c-1.7,0-3,1.2-3.3,2.8H16.3V4h6.5c0.3,1.5,1.6,2.6,3.2,2.6c1.8,0,3.3-1.5,3.3-3.3C29.3,1.5,27.9,0,26,0
		c-1.7,0-3.1,1.3-3.3,3h-7c-0.1,0-0.3,0.1-0.4,0.1s-0.1,0.2-0.1,0.4v9.1v7.1c0,0,0,0.1,0,0.1c-0.8,0.3-1.5,0.7-2.2,1.1
		c-0.1,0.1-0.2,0.2-0.3,0.2l0.1-0.1l0.1,0c-0.1,0-0.2,0.1-0.3,0.2l0.1,0l-0.1,0l-0.1,0l0,0l0,0l-0.1,0.1l0,0
		c-0.1,0.1-0.3,0.2-0.4,0.3c0.1-0.1,0.2-0.2,0.3-0.3c-0.2,0.1-0.4,0.2-0.5,0.4c-1.3,1-2.4,2.1-3.3,3.4c-2.8,3.7-3.9,8-4.3,10.7l0,0
		c0,0.4,0,0.7-0.1,1.1l0,0.1l0,0c0,0.8-0.1,1.5-0.1,2.3c0,0.8,0,1.6,0.1,2.4c0,0.1,0,0.2,0,0.3c0,0.5,0.1,1,0.1,1.5
		c0,0.5,0.1,0.9,0.2,1.4c0.3,1.9,0.6,3.6,1.1,5.3c0.1,0.5,0.3,1,0.4,1.4c0.8,2.4,1.7,4.5,2.7,6.4H3.3c-0.1,0-0.3,0.1-0.4,0.1
		s-0.1,0.2-0.1,0.4v7.5C1.2,66.1,0,67.4,0,69.1c0,1.8,1.5,3.3,3.3,3.3s3.3-1.5,3.3-3.3c0-1.7-1.2-3-2.8-3.3v-7H9
		c0.1,0,0.3-0.1,0.4-0.1c0.2,0.3,0.4,0.7,0.6,1l0,0.1c0.3,0.4,0.5,0.8,0.8,1.2c3.2,4.9,6.5,7.4,6.5,7.4l0,0c1,0.7,2.2,1.1,3.5,1.1
		c2.4,0,4.4-1.4,5.3-3.5c0.9,2.1,3,3.5,5.3,3.5c1.3,0,2.5-0.4,3.5-1.1l0,0c0,0,3.3-2.5,6.5-7.4c0.3-0.4,0.5-0.8,0.8-1.2l0-0.1
		c1.4-2.3,2.7-5,3.8-8.2c0.2-0.5,0.3-0.9,0.4-1.4c0.5-1.6,0.8-3.4,1.1-5.3c0.1-0.5,0.1-0.9,0.2-1.4c0-0.5,0.1-1,0.1-1.5
		c0-0.1,0-0.2,0-0.3c0-0.8,0.1-1.6,0.1-2.4c0-0.7,0-1.5-0.1-2.3l0,0l0-0.1c0-0.4,0-0.7-0.1-1.1l0,0c-0.4-2.6-1.5-6.9-4.3-10.7
		c-0.9-1.2-2-2.4-3.3-3.4c-0.2-0.1-0.4-0.2-0.5-0.4c0.1,0.1,0.2,0.2,0.3,0.3c-0.1-0.1-0.2-0.2-0.4-0.3l0,0l-0.1-0.1l0,0l0,0l-0.1,0
		l-0.1,0l0.1,0c-0.1-0.1-0.2-0.1-0.3-0.2l0.1,0l0.1,0.1C39.1,21.1,39,21,38.9,21c-2.5-1.6-5.8-2.7-9.8-2.7c-1,0-1.9,0.4-2.5,1
		c-0.2,0.2-0.4,0.4-0.5,0.7c-0.1-0.2-0.3-0.5-0.5-0.7c-0.6-0.6-1.5-1-2.5-1c-2.5,0-4.8,0.4-6.7,1.1v-6.2h15.5C32,14.8,33.4,16,35,16
		c1.7,0,3-1.2,3.3-2.8H41c0,0,0,0,0,0c0.2,1.6,1.6,2.8,3.3,2.8c1.8,0,3.3-1.5,3.3-3.3c0-1.8-1.5-3.3-3.3-3.3c-1.7,0-3,1.2-3.3,2.8
		c0,0,0,0,0,0h-2.7C38,10.6,36.7,9.3,35,9.3z M26,1c1.3,0,2.3,1,2.3,2.3c0,1.3-1,2.3-2.3,2.3c-1.3,0-2.3-1-2.3-2.3
		C23.7,2,24.7,1,26,1z M5.6,69.1c0,1.3-1,2.3-2.3,2.3c-1.3,0-2.3-1-2.3-2.3c0-1.3,1-2.3,2.3-2.3c0,0,0,0,0,0s0,0,0,0
		C4.6,66.8,5.6,67.8,5.6,69.1z M15.9,20.6c-0.1,0.2-0.1,0.3-0.2,0.5c-0.1-0.1-0.3-0.1-0.4-0.2C15.5,20.8,15.7,20.7,15.9,20.6z
		 M5.4,35.9c0-0.3,0.1-0.7,0.2-1.1c0.1-0.3,0.1-0.6,0.2-0.9c0.1-0.2,0.2-0.3,0.4-0.5C6.5,33,7,32.8,7.5,32.8c0.4,0,0.9,0.2,1.2,0.4
		l-0.2,0.1C8,34,7.7,34.7,7.7,35.5c0,0.7,0.3,1.5,0.9,2.1c0.2,0.2,0.5,0.2,0.7,0c0.2-0.2,0.2-0.5,0-0.7c-0.4-0.4-0.6-0.9-0.6-1.4
		c0-0.5,0.2-1,0.6-1.4c0.4-0.4,0.9-0.6,1.4-0.6c0.5,0,1,0.2,1.3,0.5l0,0c0.2,0.2,0.5,0.2,0.7,0l0,0l0,0c0.2-0.2,0.2-0.5,0-0.7l0,0
		c-0.4-0.4-0.5-0.8-0.5-1.3c0-0.3,0.1-0.7,0.3-1c0.1-0.1,0.2-0.3,0.3-0.4c0.3-0.3,0.6-0.4,0.9-0.5l0.2,0l0.2,0
		c0.4,0,0.8,0.1,1.2,0.4l0.2,0.2c0.2,0.2,0.5,0.2,0.7,0s0.2-0.5,0-0.7l-0.3-0.2c0.3-0.5,0.4-1,0.4-1.5c0-0.7-0.3-1.5-0.9-2.1
		c-0.2-0.2-0.5-0.2-0.7,0s-0.2,0.5,0,0.7c0.4,0.4,0.6,0.9,0.6,1.4c0,0.3-0.1,0.7-0.3,1c-0.3-0.1-0.6-0.2-0.9-0.2
		c-0.7,0-1.3,0.2-1.9,0.7L11.9,30c-0.2,0.2-0.3,0.4-0.4,0.6c-0.3,0.5-0.4,1-0.4,1.5c0,0.2,0,0.4,0.1,0.6c-0.2,0-0.4-0.1-0.5-0.1
		c-0.3,0-0.7,0.1-1,0.2l0-0.1c-0.6-0.6-1.3-0.9-2.1-0.9c-0.4,0-0.8,0.1-1.2,0.3c0.1-0.5,0.3-0.9,0.5-1.4c0.5,0.4,1.1,0.6,1.7,0.6
		c0.7,0,1.5-0.3,2.1-0.9c0.6-0.6,0.9-1.3,0.9-2.1c0-0.7-0.3-1.5-0.9-2.1c-0.2-0.2-0.5-0.2-0.7,0s-0.2,0.5,0,0.7
		c0.4,0.4,0.6,0.9,0.6,1.4c0,0.5-0.2,1-0.6,1.4c-0.4,0.4-0.9,0.6-1.4,0.6c-0.5,0-0.9-0.2-1.3-0.5c0.6-1.4,1.4-2.8,2.4-4.1
		c0.6-0.7,1.2-1.4,1.9-2.1l0,0.1c0,0.6,0.2,1.2,0.6,1.7c-0.3,0.5-0.5,1.1-0.5,1.6c0,0.7,0.3,1.5,0.9,2.1c0.2,0.2,0.5,0.2,0.7,0
		s0.2-0.5,0-0.7c-0.4-0.4-0.6-0.9-0.6-1.4c0-0.5,0.2-1,0.6-1.4s0.9-0.6,1.4-0.6l0.1,0c0.6,0.5,1.2,0.8,1.9,0.8c0.3,0,0.7-0.1,1-0.2
		c-0.1,0.3-0.2,0.6-0.2,0.9c0,0.6,0.2,1.2,0.6,1.7c-0.3,0.5-0.5,1.1-0.5,1.6c0,0.6,0.2,1.2,0.6,1.8c-0.2,0.4-0.3,0.8-0.4,1.2
		c-0.5-0.4-1.1-0.6-1.7-0.6c-0.5,0-1,0.1-1.4,0.4c-0.2-0.1-0.5-0.1-0.7,0c-0.2,0.2-0.2,0.4-0.1,0.6l0.1,0.1c0.2,0.2,0.3,0.4,0.4,0.6
		c0.1,0.2,0.2,0.5,0.2,0.8c0,0.5-0.2,1-0.6,1.4c-0.4,0.4-0.9,0.6-1.4,0.6c-0.5,0-1-0.2-1.3-0.5l0,0c-0.2-0.2-0.5-0.2-0.7,0l0,0l0,0
		c-0.2,0.2-0.2,0.5,0,0.7l0,0c0.4,0.4,0.5,0.8,0.5,1.3c0,0.5-0.2,1-0.6,1.4S9.5,40.1,9,40.1c-0.5,0-0.9-0.2-1.3-0.5l0-0.2
		c0-1.1-0.6-2-1.4-2.5l-0.2-0.1c-0.2-0.1-0.5-0.2-0.7-0.3C5.4,36.3,5.4,36.1,5.4,35.9z M21.2,30.3c-0.2-0.1-0.5-0.1-0.7-0.1
		c-0.7,0-1.3,0.2-1.9,0.7c-0.2-0.3-0.3-0.6-0.3-1c0-0.5,0.2-1,0.6-1.4s0.9-0.6,1.4-0.6c0.5,0,0.9,0.2,1.3,0.5
		c-0.2,0.4-0.4,0.9-0.4,1.4C21.2,30.1,21.2,30.2,21.2,30.3z M21.2,27.2c-0.3-0.1-0.6-0.2-0.9-0.2c-0.6,0-1.2,0.2-1.7,0.6
		c-0.2-0.3-0.3-0.6-0.3-1c0-0.5,0.2-1,0.6-1.4c0.4-0.4,0.9-0.6,1.4-0.6c0.5,0,0.9,0.2,1.3,0.5c-0.2,0.4-0.4,0.9-0.4,1.4
		C21.1,26.8,21.2,27,21.2,27.2z M18.7,38.4c0,0.3,0.2,0.5,0.5,0.5c0.3,0,0.5-0.2,0.5-0.5c0-0.8-0.5-1.5-1.2-1.7c0-0.1,0-0.2,0.1-0.3
		c0-0.1,0.1-0.2,0.1-0.3c0.4-0.8,1.2-1.4,2.2-1.5c0.6,0.6,1.4,0.9,2.2,0.9c0.8,0,1.7-0.3,2.3-0.9l0.7-0.6l0.7,0.6
		c0.6,0.6,1.5,0.9,2.3,0.9c0.8,0,1.6-0.3,2.2-0.9c1,0.1,1.8,0.6,2.2,1.5c0,0.1,0.1,0.2,0.1,0.3c0,0.1,0.1,0.2,0.1,0.3
		c-0.7,0.2-1.2,0.9-1.2,1.7c0,0.3,0.2,0.5,0.5,0.5s0.5-0.2,0.5-0.5c0-0.4,0.4-0.8,0.8-0.8s0.8,0.4,0.8,0.8c0,0.3,0.2,0.5,0.5,0.5
		s0.5-0.2,0.5-0.5c0-0.7-0.4-1.3-1-1.6l-0.1-0.2c-0.2-0.2-0.3-0.4-0.4-0.6c0-0.1-0.1-0.2-0.1-0.4c0-0.1-0.1-0.3-0.1-0.4
		c0-0.5,0.2-1,0.6-1.4s0.9-0.6,1.4-0.6c0.3,0,0.6,0.1,0.8,0.2c-0.2,0.4-0.3,0.8-0.3,1.3c0,0.7,0.3,1.5,0.9,2.1
		c0.2,0.2,0.4,0.3,0.7,0.5c-1.4,0.2-2.5,1.4-2.5,2.9c0,1.1-0.9,1.9-1.9,1.9c-1.1,0-1.9-0.9-1.9-1.9l0,0l0,0c0-1.8-1.4-3.2-3.2-3.2
		c-0.8,0-1.6,0.3-2.2,0.9h0L26,38.4l-0.5-0.7h0c-0.6-0.5-1.3-0.9-2.2-0.9c-1.7,0-3.2,1.4-3.2,3.2l0,0l0,0c0,1.1-0.9,1.9-1.9,1.9
		c-1.1,0-1.9-0.9-1.9-1.9c0-1.5-1.1-2.7-2.5-2.9c0.2-0.1,0.5-0.3,0.7-0.5c0.6-0.6,0.9-1.3,0.9-2.1c0-0.4-0.1-0.9-0.3-1.3
		c0.3-0.1,0.5-0.2,0.8-0.2c0.5,0,1,0.2,1.4,0.6s0.6,0.9,0.6,1.4c0,0.2,0,0.3-0.1,0.4c-0.1,0.1-0.1,0.2-0.1,0.4
		c-0.1,0.2-0.2,0.4-0.4,0.6l-0.1,0.2c-0.6,0.3-1,0.9-1,1.6c0,0.3,0.2,0.5,0.5,0.5c0.3,0,0.5-0.2,0.5-0.5c0-0.4,0.4-0.8,0.8-0.8
		C18.3,37.6,18.7,37.9,18.7,38.4z M30.5,28.5c0.4-0.3,0.8-0.5,1.3-0.5c0.5,0,1,0.2,1.4,0.6s0.6,0.9,0.6,1.4c0,0.3-0.1,0.7-0.3,1
		c-0.5-0.5-1.2-0.7-1.9-0.7c-0.2,0-0.5,0-0.7,0.1c0-0.1,0-0.3,0-0.4C30.9,29.5,30.7,29,30.5,28.5z M30.5,25.2
		c0.4-0.3,0.8-0.5,1.3-0.5c0.5,0,1,0.2,1.4,0.6c0.4,0.4,0.6,0.9,0.6,1.4c0,0.3-0.1,0.7-0.3,1C33,27.2,32.4,27,31.8,27
		c-0.3,0-0.6,0.1-0.9,0.2c0-0.2,0.1-0.4,0.1-0.6C30.9,26.1,30.8,25.6,30.5,25.2z M38,52.9c0.2,0.2,0.5,0.4,0.8,0.6
		c-0.4,0.1-0.8,0.4-1.1,0.7c-0.6,0.6-0.9,1.4-0.9,2.2l0,0l-0.2,0.1c-0.4,0.4-0.9,0.6-1.4,0.6c-0.5,0-1-0.2-1.4-0.6s-0.6-0.9-0.6-1.4
		c0-0.3,0.1-0.7,0.3-1c0.5,0.4,1.1,0.6,1.7,0.6c0.7,0,1.5-0.3,2.1-0.9c0.2-0.2,0.2-0.5,0-0.7s-0.5-0.2-0.7,0
		c-0.4,0.4-0.9,0.6-1.4,0.6c-0.5,0-1-0.2-1.4-0.6c-0.4-0.4-0.6-0.9-0.6-1.4c0-0.5,0.2-1,0.6-1.3l0,0c0.3-0.3,0.5-0.6,0.6-0.9l0,0
		c0.6,0.6,1.3,0.9,2.1,0.9c0.2,0,0.4,0,0.6-0.1c0,0.2-0.1,0.4-0.1,0.6C37.1,51.6,37.4,52.4,38,52.9z M14.7,53.8
		c0.6,0.6,1.3,0.9,2.1,0.9c0.6,0,1.2-0.2,1.7-0.6c0.2,0.3,0.3,0.6,0.3,1c0,0.5-0.2,1-0.6,1.4c-0.4,0.4-0.9,0.6-1.4,0.6
		s-1-0.2-1.4-0.6l-0.2-0.1l0,0c0-0.8-0.3-1.6-0.9-2.2c-0.3-0.3-0.7-0.5-1.1-0.7c0.3-0.1,0.6-0.3,0.8-0.6c0.6-0.6,0.9-1.3,0.9-2.1
		c0-0.2,0-0.4-0.1-0.6c0.2,0,0.4,0.1,0.6,0.1c0.7,0,1.5-0.3,2.1-0.9l0,0c0.1,0.3,0.3,0.6,0.6,0.9l0,0c0.4,0.4,0.6,0.9,0.6,1.3
		c0,0.5-0.2,1-0.6,1.4s-0.9,0.6-1.4,0.6c-0.5,0-1-0.2-1.4-0.6c-0.2-0.2-0.5-0.2-0.7,0S14.5,53.6,14.7,53.8z M12,37.6l-0.1,0.1l0-0.1
		L12,37.6z M5.3,39.2c0-0.6,0-1.2,0-1.8c0.8,0.2,1.4,1,1.4,1.8c0,0.9-0.6,1.6-1.4,1.8C5.3,40.5,5.3,39.9,5.3,39.2z M5.9,46.1
		c0.4,0.2,0.9,0.4,1.5,0.4c1.6,0,2.9-1.3,2.9-2.9c0-0.3-0.2-0.5-0.5-0.5c-0.3,0-0.5,0.2-0.5,0.5c0,1.1-0.9,1.9-1.9,1.9
		c-0.8,0-1.4-0.4-1.7-1.1c-0.1-0.7-0.2-1.5-0.2-2.3C6.3,42,7,41.4,7.4,40.6C7.8,40.8,8.2,41,8.6,41c-0.3,0.5-0.5,1-0.5,1.6
		c0,0.3,0.2,0.5,0.5,0.5c0.3,0,0.5-0.2,0.5-0.5c0-1.1,0.9-1.9,1.9-1.9c1.1,0,1.9,0.9,1.9,1.9c0,0.3,0.2,0.5,0.5,0.5
		c0.3,0,0.5-0.2,0.5-0.5c0-1.4-1-2.6-2.4-2.9c0.2-0.8,1-1.5,1.9-1.5c1.1,0,1.9,0.9,1.9,1.9c0,0.9,0.4,1.7,1.1,2.3l0.1,0.1
		c0.4,0.4,0.6,0.9,0.6,1.4c0,0.5-0.2,1-0.6,1.4c-0.4,0.4-0.9,0.6-1.4,0.6c-0.5,0-0.9-0.2-1.3-0.5c-0.1-0.6-0.4-1.1-0.8-1.5
		c-0.2-0.2-0.5-0.2-0.7,0c-0.2,0.2-0.2,0.5,0,0.7c0.4,0.4,0.6,0.9,0.6,1.4s-0.2,1-0.6,1.4c-0.4,0.4-0.9,0.6-1.4,0.6
		c-0.4,0-0.9-0.2-1.2-0.4c-0.1-0.2-0.3-0.4-0.4-0.6c-0.2-0.2-0.5-0.2-0.7,0s-0.2,0.5,0,0.7l0.2,0.2c0,0.1,0.1,0.2,0.1,0.3L9,48
		c0.1,0.3,0.2,0.6,0.2,0.8c0,0.5-0.2,1-0.6,1.4c-0.4,0.4-0.9,0.6-1.4,0.6c-0.1,0-0.2,0-0.4,0C6.5,49.3,6.2,47.7,5.9,46.1z M12,61
		c0.1,0,0.3,0,0.4,0c0.2,0,0.4,0,0.6-0.1c0,0.2-0.1,0.4-0.1,0.6c0,0.4,0.1,0.7,0.2,1C12.7,62.1,12.4,61.6,12,61z M25.5,63.7
		c0,1.3-0.5,2.5-1.4,3.4c-0.7,0.7-1.5,1.1-2.4,1.3l0,0c-1.1,0-1.9-0.9-1.9-1.9c0-1.1,0.9-1.9,1.9-1.9c0.3,0,0.5-0.2,0.5-0.5
		c0-0.3-0.2-0.5-0.5-0.5c-1.1,0-1.9-0.9-1.9-1.9c0-1.1,0.9-1.9,1.9-1.9c0.3,0,0.5-0.2,0.5-0.5c0-0.3-0.2-0.5-0.5-0.5
		c-0.7,0-1.3,0.2-1.7,0.6c-0.1-0.4-0.3-0.8-0.6-1.1c-0.2-0.2-0.5-0.2-0.7,0s-0.2,0.5,0,0.7c0.3,0.3,0.4,0.6,0.4,1s-0.1,0.7-0.4,1
		s-0.6,0.4-1,0.4c-0.4,0-0.7-0.1-1-0.4c-0.2-0.2-0.5-0.2-0.7,0s-0.2,0.5,0,0.7c0.3,0.3,0.8,0.6,1.2,0.6l0.2,0c1,0,1.8,0.8,1.8,1.8
		c0,1-0.8,1.8-1.8,1.8c-0.3,0-0.5,0.2-0.5,0.5c0,0.3,0.2,0.5,0.5,0.5c0.5,0,1-0.1,1.4-0.4c0,0.7,0.3,1.3,0.7,1.8
		c-0.6-0.2-1.1-0.4-1.6-0.8l0,0l-0.1-0.1c-0.1-0.1-0.2-0.2-0.4-0.3c-0.3-0.3-0.8-0.8-1.4-1.3c-0.5-0.5-1-1.1-1.6-1.8
		c0.5,0.3,1,0.5,1.6,0.5c0.3,0,0.5-0.2,0.5-0.5c0-0.3-0.2-0.5-0.5-0.5c-1.1,0-1.9-0.9-1.9-1.9c0-1.1,0.9-1.9,1.9-1.9
		c0.3,0,0.5-0.2,0.5-0.5s-0.2-0.5-0.5-0.5c-0.7,0-1.4,0.3-1.9,0.7l-0.2,0.1c-0.4,0.4-0.9,0.6-1.4,0.6s-1-0.2-1.4-0.6
		c-0.1-0.1-0.2-0.2-0.2-0.3l0-0.1c-0.2-0.3-0.3-0.6-0.3-1c0-0.5,0.2-1,0.6-1.4c0.2-0.2,0.2-0.5,0-0.7s-0.5-0.2-0.7,0
		c-0.3,0.3-0.5,0.7-0.7,1.1c-0.9-1.6-1.7-3.5-2.4-5.5l0,0c0.4,0,0.9-0.1,1.3-0.3c0.1,0,0.3,0,0.4-0.1c0.4-0.3,0.8-0.5,1.3-0.5
		c0.5,0,0.9,0.2,1.3,0.5c0.2,0.2,0.5,0.2,0.7,0s0.2-0.5,0-0.7c-0.5-0.5-1.3-0.8-2-0.8l-0.2,0c0.1-0.3,0.2-0.6,0.2-1l0-0.2
		c0.3,0.1,0.5,0.1,0.8,0.1c0.7,0,1.5-0.3,2.1-0.9c0.4-0.4,0.7-0.9,0.8-1.4c0.4,0.2,0.8,0.3,1.3,0.3c0.6,0,1.2-0.2,1.7-0.6
		c0.3,0.4,0.5,0.8,0.5,1.2c0,0.1,0,0.2,0,0.3l0,0.1c-0.1,0.4-0.2,0.7-0.5,1c-0.4,0.4-0.9,0.6-1.4,0.6c-0.5,0-1-0.2-1.4-0.6
		c-0.2-0.2-0.5-0.2-0.7,0l0,0l0,0c-0.2,0.2-0.2,0.5,0,0.7c0.4,0.4,0.6,0.9,0.6,1.4s-0.2,1-0.6,1.4c-0.4,0.4-0.9,0.6-1.4,0.6
		s-1-0.2-1.4-0.6l-0.1-0.1c-0.1-0.1-0.2-0.2-0.3-0.3c-0.2-0.2-0.5-0.2-0.7,0s-0.2,0.5,0,0.7c0.3,0.3,0.5,0.7,0.5,1.2
		s-0.2,0.8-0.5,1.2c-0.2,0.2-0.2,0.5,0,0.7s0.5,0.2,0.7,0c0.2-0.2,0.3-0.4,0.4-0.6l0.1,0c0.4-0.4,0.9-0.6,1.4-0.6
		c0.5,0,1,0.2,1.4,0.6c0.4,0.4,0.6,0.9,0.6,1.4c0,0.5-0.2,1-0.6,1.4c-0.2,0.2-0.2,0.5,0,0.7s0.5,0.2,0.7,0c0.3-0.3,0.5-0.7,0.7-1.1
		c0.5,0.4,1.2,0.6,1.8,0.6c0.7,0,1.5-0.3,2.1-0.9c0.2-0.2,0.4-0.5,0.6-0.8c0.5,0.6,1.3,1,2.2,1h0c1.1,0,1.9,0.9,1.9,1.9
		c0,1.1-0.9,1.9-1.9,1.9c-0.3,0-0.5,0.2-0.5,0.5s0.2,0.5,0.5,0.5c1.1,0,1.9,0.9,1.9,1.9c0,1.1-0.9,1.9-1.9,1.9
		c-0.3,0-0.5,0.2-0.5,0.5c0,0.3,0.2,0.5,0.5,0.5c1.6,0,2.9-1.3,2.9-2.9c0-1-0.5-1.9-1.3-2.4c0.8-0.5,1.3-1.4,1.3-2.4
		c0-1.6-1.3-2.9-2.9-2.9h0c-1.1,0-1.9-0.9-1.9-1.9c0-1,0.8-1.9,1.9-1.9l0,0c0.3,0,0.5-0.2,0.5-0.5l0,0v0c0-0.3-0.2-0.5-0.5-0.5l0,0
		c-1,0-1.9-0.9-1.9-1.9c0-1.1,0.9-1.9,1.9-1.9c0.3,0,0.5-0.2,0.5-0.5l0-0.1c0-0.2-0.2-0.4-0.5-0.4l-0.1,0l-0.2-0.1
		c-0.8,0-1.5-0.7-1.5-1.5c0-0.8,0.7-1.5,1.5-1.5c0.3,0,0.5-0.2,0.5-0.5c0-0.3-0.2-0.5-0.5-0.5c-1.4,0-2.5,1.1-2.5,2.5
		c0,0.9,0.5,1.7,1.2,2.1c-0.7,0.5-1.2,1.4-1.2,2.3c-0.3-0.4-0.4-0.8-0.4-1.2c0-0.1,0-0.2,0-0.3l0-0.1c0-0.2,0-0.3,0-0.5
		c0-0.4-0.1-0.8-0.2-1.2c-0.1-0.3-0.3-0.6-0.5-0.8c0.3-0.5,0.5-1,0.5-1.6c0-0.3-0.1-0.5-0.1-0.8c0.1,0,0.2,0,0.3,0
		c1.6,0,2.9-1.3,2.9-2.9l0,0l0,0c0-1.2,1-2.2,2.2-2.2c1.2,0,2.1,0.9,2.2,2.1v0.1v0.6V42c-0.4-1-1.4-1.7-2.6-1.7
		c-0.3,0-0.5,0.2-0.5,0.5c0,0.3,0.2,0.5,0.5,0.5c1,0,1.8,0.8,1.8,1.8c0,1-0.8,1.8-1.8,1.8c-0.3,0-0.5,0.2-0.5,0.5s0.2,0.5,0.5,0.5
		c1.2,0,2.2-0.7,2.6-1.7v0.4v4.3v0.9c-0.6-0.6-1.4-1-2.3-1v0h0v0c-0.3,0-0.5,0.2-0.5,0.5s0.2,0.5,0.5,0.5h0c1.2,0,2.2,1,2.2,2.2
		c0,1.2-1,2.2-2.2,2.2v0c-0.3,0-0.5,0.2-0.5,0.5c0,0.2,0.1,0.4,0.3,0.5l0.2,0.1h0c1.2,0,2.2,1,2.2,2.2v0l0,0.1L25.5,63.7L25.5,63.7z
		 M19.7,52.3c0-0.2,0-0.3,0-0.5v0c0.1,0.1,0.2,0.2,0.3,0.2C19.9,52.1,19.8,52.2,19.7,52.3z M25.5,55.1c-0.2-0.2-0.4-0.3-0.6-0.4
		c0.2-0.1,0.4-0.3,0.6-0.5v0l0.5-0.5l0.5,0.5c0.2,0.2,0.4,0.3,0.6,0.5c-0.2,0.1-0.4,0.3-0.5,0.4L26,55.6L25.5,55.1z M38.9,62.6
		c0.1-0.3,0.2-0.7,0.2-1c0-0.2,0-0.4-0.1-0.6c0.2,0,0.4,0.1,0.6,0.1c0.1,0,0.3,0,0.4,0C39.7,61.6,39.3,62.1,38.9,62.6z M42.4,57.2
		c-0.1-0.4-0.4-0.8-0.7-1.1c-0.2-0.2-0.5-0.2-0.7,0s-0.2,0.5,0,0.7c0.4,0.4,0.6,0.9,0.6,1.4c0,0.3-0.1,0.7-0.3,1l0,0.1
		c-0.1,0.1-0.1,0.2-0.2,0.3c-0.4,0.4-0.9,0.6-1.4,0.6c-0.5,0-1-0.2-1.4-0.6l-0.2-0.1c-0.5-0.4-1.2-0.7-1.9-0.7
		c-0.3,0-0.5,0.2-0.5,0.5s0.2,0.5,0.5,0.5c1.1,0,1.9,0.9,1.9,1.9c0,1.1-0.9,1.9-1.9,1.9c-0.3,0-0.5,0.2-0.5,0.5
		c0,0.3,0.2,0.5,0.5,0.5c0.6,0,1.1-0.2,1.6-0.5c-0.6,0.7-1.1,1.3-1.6,1.8c-0.6,0.6-1.1,1.1-1.4,1.3c-0.2,0.1-0.3,0.3-0.4,0.3
		l-0.1,0.1l0,0c-0.5,0.3-1,0.6-1.6,0.8c0.4-0.5,0.7-1.1,0.7-1.8c0.4,0.2,0.9,0.4,1.4,0.4c0.3,0,0.5-0.2,0.5-0.5
		c0-0.3-0.2-0.5-0.5-0.5c-1,0-1.8-0.8-1.8-1.8c0-1,0.8-1.8,1.8-1.8l0.2,0c0.4-0.1,0.9-0.3,1.2-0.6c0.2-0.2,0.2-0.5,0-0.7
		s-0.5-0.2-0.7,0c-0.3,0.3-0.6,0.4-1,0.4c-0.4,0-0.7-0.1-1-0.4c-0.3-0.3-0.4-0.6-0.4-1c0-0.4,0.1-0.7,0.4-1c0.2-0.2,0.2-0.5,0-0.7
		s-0.5-0.2-0.7,0c-0.3,0.3-0.5,0.7-0.6,1.1c-0.5-0.4-1.1-0.6-1.7-0.6c-0.3,0-0.5,0.2-0.5,0.5c0,0.3,0.2,0.5,0.5,0.5
		c1.1,0,1.9,0.9,1.9,1.9c0,1.1-0.9,1.9-1.9,1.9c-0.3,0-0.5,0.2-0.5,0.5c0,0.3,0.2,0.5,0.5,0.5c1.1,0,1.9,0.9,1.9,1.9
		c0,1.1-0.9,1.9-1.9,1.9l0,0c-0.9-0.2-1.8-0.7-2.4-1.3c-0.9-0.9-1.4-2.1-1.4-3.4v-6.1l0-0.1v0c0-1.2,1-2.2,2.2-2.2h0l0.2-0.1
		c0.2-0.1,0.3-0.3,0.3-0.5c0-0.3-0.2-0.5-0.5-0.5v0c-1.2,0-2.2-1-2.2-2.2c0-1.2,1-2.2,2.2-2.2h0c0.3,0,0.5-0.2,0.5-0.5
		c0-0.3-0.2-0.5-0.5-0.5v0h0v0c-0.9,0-1.7,0.4-2.3,1v-0.9v-4.3v-0.4c0.4,1,1.4,1.7,2.6,1.7c0.3,0,0.5-0.2,0.5-0.5s-0.2-0.5-0.5-0.5
		c-1,0-1.8-0.8-1.8-1.8c0-1,0.8-1.8,1.8-1.8c0.3,0,0.5-0.2,0.5-0.5c0-0.3-0.2-0.5-0.5-0.5c-1.2,0-2.2,0.7-2.6,1.7v-1.3v-0.6V40
		c0.1-1.1,1-2.1,2.2-2.1c1.2,0,2.2,1,2.2,2.2l0,0l0,0c0,1.6,1.3,2.9,2.9,2.9c0.1,0,0.2,0,0.3,0C34,43.3,34,43.6,34,43.9
		c0,0.6,0.2,1.1,0.5,1.6c-0.2,0.2-0.4,0.5-0.5,0.8c-0.2,0.4-0.2,0.8-0.2,1.2c0,0.2,0,0.3,0,0.5l0,0.1c0,0.1,0,0.2,0,0.3
		c0,0.4-0.2,0.9-0.4,1.2c0-1-0.5-1.8-1.2-2.3c0.7-0.4,1.2-1.2,1.2-2.1c0-1.4-1.1-2.5-2.5-2.5c-0.3,0-0.5,0.2-0.5,0.5
		c0,0.3,0.2,0.5,0.5,0.5c0.8,0,1.5,0.7,1.5,1.5c0,0.8-0.7,1.5-1.5,1.5l-0.2,0.1l-0.1,0c-0.2,0-0.4,0.2-0.5,0.4l0,0.1
		c0,0.3,0.2,0.5,0.5,0.5c1.1,0,1.9,0.9,1.9,1.9c0,1-0.8,1.9-1.9,1.9l0,0c-0.3,0-0.5,0.2-0.5,0.5l0,0l0,0c0,0.3,0.2,0.5,0.5,0.5l0,0
		c1,0,1.9,0.9,1.9,1.9c0,1.1-0.9,1.9-1.9,1.9h0c-1.6,0-2.9,1.3-2.9,2.9c0,1,0.5,1.9,1.3,2.4c-0.8,0.5-1.3,1.4-1.3,2.4
		c0,1.6,1.3,2.9,2.9,2.9c0.3,0,0.5-0.2,0.5-0.5c0-0.3-0.2-0.5-0.5-0.5c-1.1,0-1.9-0.9-1.9-1.9c0-1.1,0.9-1.9,1.9-1.9
		c0.3,0,0.5-0.2,0.5-0.5s-0.2-0.5-0.5-0.5h0c-1.1,0-1.9-0.9-1.9-1.9c0-1.1,0.9-1.9,1.9-1.9h0c0.9,0,1.6-0.4,2.2-1
		c0.1,0.3,0.3,0.6,0.6,0.8c0.6,0.6,1.3,0.9,2.1,0.9c0.6,0,1.3-0.2,1.8-0.6c0.1,0.4,0.4,0.8,0.7,1.1c0.2,0.2,0.5,0.2,0.7,0
		s0.2-0.5,0-0.7c-0.4-0.4-0.6-0.9-0.6-1.4c0-0.5,0.2-1,0.6-1.4c0.4-0.4,0.9-0.6,1.4-0.6c0.5,0,1,0.2,1.4,0.6l0.1,0
		c0.1,0.2,0.2,0.4,0.4,0.6c0.2,0.2,0.5,0.2,0.7,0c0.2-0.2,0.2-0.5,0-0.7c-0.3-0.3-0.5-0.7-0.5-1.2c0-0.4,0.2-0.8,0.5-1.2
		c0.2-0.2,0.2-0.5,0-0.7s-0.5-0.2-0.7,0c-0.1,0.1-0.2,0.2-0.3,0.3l-0.1,0.1c-0.4,0.4-0.9,0.6-1.4,0.6c-0.5,0-1-0.2-1.4-0.6
		c-0.4-0.4-0.6-0.9-0.6-1.4c0-0.5,0.2-1,0.6-1.4c0.2-0.2,0.2-0.5,0-0.7l0,0l0,0c-0.2-0.2-0.5-0.2-0.7,0c-0.4,0.4-0.9,0.6-1.4,0.6
		c-0.5,0-1-0.2-1.4-0.6c-0.3-0.3-0.4-0.6-0.5-1l0-0.1c0-0.1,0-0.2,0-0.3c0-0.4,0.2-0.9,0.5-1.2c0.5,0.4,1.1,0.6,1.7,0.6
		c0.4,0,0.9-0.1,1.3-0.3c0.1,0.5,0.4,1,0.8,1.4c0.6,0.6,1.3,0.9,2.1,0.9c0.3,0,0.5-0.1,0.8-0.1l0,0.2c0,0.3,0.1,0.7,0.2,1l-0.2,0
		c-0.7,0-1.4,0.3-2,0.8c-0.2,0.2-0.2,0.5,0,0.7s0.5,0.2,0.7,0c0.4-0.3,0.8-0.5,1.3-0.5c0.5,0,0.9,0.2,1.3,0.5
		c0.1,0.1,0.3,0.2,0.4,0.1c0.4,0.2,0.8,0.3,1.3,0.3l0,0C44.1,53.7,43.3,55.5,42.4,57.2z M32.4,52.3c-0.1-0.1-0.2-0.2-0.3-0.3
		c0.1-0.1,0.2-0.2,0.3-0.2l0,0C32.3,51.9,32.4,52.1,32.4,52.3z M46.4,44.5c-0.3,0.6-1,1.1-1.7,1.1c-1.1,0-1.9-0.9-1.9-1.9
		c0-0.3-0.2-0.5-0.5-0.5s-0.5,0.2-0.5,0.5c0,1.6,1.3,2.9,2.9,2.9c0.5,0,1-0.2,1.5-0.4c-0.3,1.6-0.7,3.1-1.1,4.5c-0.1,0-0.2,0-0.4,0
		c-0.5,0-1-0.2-1.4-0.6c-0.4-0.4-0.6-0.9-0.6-1.4c0-0.3,0.1-0.6,0.2-0.8l0.1-0.1c0.1-0.1,0.1-0.2,0.1-0.3l0.2-0.2
		c0.2-0.2,0.2-0.5,0-0.7s-0.5-0.2-0.7,0c-0.2,0.2-0.3,0.4-0.4,0.6c-0.4,0.3-0.8,0.4-1.2,0.4c-0.5,0-1-0.2-1.4-0.6
		c-0.4-0.4-0.6-0.9-0.6-1.4s0.2-1,0.6-1.4c0.2-0.2,0.2-0.5,0-0.7c-0.2-0.2-0.5-0.2-0.7,0c-0.4,0.4-0.7,1-0.8,1.5
		c-0.4,0.3-0.8,0.5-1.3,0.5c-0.5,0-1-0.2-1.4-0.6c-0.4-0.4-0.6-0.9-0.6-1.4c0-0.5,0.2-1,0.6-1.4l0.1-0.1c0.7-0.5,1.1-1.3,1.1-2.3
		c0-1.1,0.9-1.9,1.9-1.9c0.9,0,1.7,0.6,1.9,1.5c-1.3,0.3-2.4,1.4-2.4,2.9c0,0.3,0.2,0.5,0.5,0.5s0.5-0.2,0.5-0.5
		c0-1.1,0.9-1.9,1.9-1.9c1.1,0,1.9,0.9,1.9,1.9c0,0.3,0.2,0.5,0.5,0.5c0.3,0,0.5-0.2,0.5-0.5c0-0.6-0.2-1.1-0.5-1.6
		c0.4-0.1,0.8-0.2,1.1-0.4c0.4,0.8,1.1,1.4,2.1,1.6C46.6,43,46.5,43.7,46.4,44.5z M40,37.6l0.1,0l0,0.1L40,37.6z M46.8,39.2
		c0,0.7,0,1.3-0.1,1.9c-0.8-0.2-1.4-1-1.4-1.8c0-0.9,0.6-1.6,1.4-1.8C46.8,38.1,46.8,38.7,46.8,39.2z M40.6,27
		c0-0.6-0.2-1.2-0.5-1.6c0.4-0.5,0.6-1.1,0.6-1.7l0-0.1c0.7,0.7,1.3,1.4,1.9,2.1c1,1.3,1.8,2.7,2.4,4.1c-0.4,0.3-0.8,0.5-1.3,0.5
		c-0.5,0-1-0.2-1.4-0.6s-0.6-0.9-0.6-1.4c0-0.5,0.2-1,0.6-1.4c0.2-0.2,0.2-0.5,0-0.7s-0.5-0.2-0.7,0c-0.6,0.6-0.9,1.3-0.9,2.1
		c0,0.7,0.3,1.5,0.9,2.1c0.6,0.6,1.3,0.9,2.1,0.9c0.6,0,1.2-0.2,1.7-0.6c0.2,0.5,0.3,0.9,0.5,1.4c-0.4-0.2-0.8-0.3-1.2-0.3
		c-0.7,0-1.5,0.3-2.1,0.9l0,0.1c-0.3-0.1-0.7-0.2-1-0.2c-0.2,0-0.4,0-0.5,0.1c0-0.2,0.1-0.4,0.1-0.6c0-0.5-0.1-1-0.4-1.5
		c-0.1-0.2-0.3-0.4-0.4-0.6l-0.2-0.2c-0.5-0.5-1.2-0.7-1.9-0.7c-0.3,0-0.6,0.1-0.9,0.2c-0.2-0.3-0.3-0.6-0.3-1c0-0.5,0.2-1,0.6-1.4
		c0.2-0.2,0.2-0.5,0-0.7s-0.5-0.2-0.7,0c-0.6,0.6-0.9,1.3-0.9,2.1c0,0.5,0.1,1,0.4,1.5L36,30c-0.2,0.2-0.2,0.5,0,0.7s0.5,0.2,0.7,0
		l0.2-0.2c0.3-0.3,0.7-0.4,1.2-0.4l0.2,0l0.2,0c0.3,0.1,0.6,0.2,0.9,0.5c0.1,0.1,0.2,0.2,0.3,0.4c0.2,0.3,0.3,0.6,0.3,1
		c0,0.5-0.2,1-0.5,1.3l0,0c-0.2,0.2-0.2,0.5,0,0.7l0,0l0,0c0.2,0.2,0.5,0.2,0.7,0l0,0c0.4-0.4,0.8-0.5,1.3-0.5c0.5,0,1,0.2,1.4,0.6
		c0.4,0.4,0.6,0.9,0.6,1.4c0,0.5-0.2,1-0.6,1.4c-0.2,0.2-0.2,0.5,0,0.7s0.5,0.2,0.7,0c0.6-0.6,0.9-1.3,0.9-2.1
		c0-0.7-0.3-1.5-0.9-2.1l-0.2-0.1c0.4-0.3,0.8-0.4,1.2-0.4c0.5,0,1,0.2,1.4,0.6c0.1,0.1,0.3,0.3,0.4,0.5c0.1,0.3,0.1,0.6,0.2,0.9
		c0.1,0.4,0.1,0.7,0.2,1.1c0,0.2,0,0.4,0,0.6c-0.3,0.1-0.5,0.1-0.7,0.3l-0.2,0.1c-0.9,0.5-1.4,1.4-1.4,2.5l0,0.2
		c-0.4,0.4-0.8,0.5-1.3,0.5c-0.5,0-1-0.2-1.4-0.6c-0.4-0.4-0.6-0.9-0.6-1.4c0-0.5,0.2-1,0.5-1.3l0,0c0.2-0.2,0.2-0.5,0-0.7l0,0l0,0
		c-0.2-0.2-0.5-0.2-0.7,0l0,0c-0.4,0.4-0.8,0.5-1.3,0.5c-0.5,0-1-0.2-1.4-0.6c-0.4-0.4-0.6-0.9-0.6-1.4c0-0.3,0.1-0.5,0.2-0.8
		c0.1-0.2,0.2-0.4,0.4-0.6l0.1-0.1c0.1-0.2,0.1-0.4-0.1-0.6c-0.2-0.2-0.5-0.2-0.7,0c-0.4-0.2-0.9-0.4-1.4-0.4
		c-0.6,0-1.2,0.2-1.7,0.6c0-0.4-0.2-0.8-0.4-1.2c0.4-0.5,0.6-1.1,0.6-1.8c0-0.6-0.2-1.2-0.5-1.6c0.4-0.5,0.6-1.1,0.6-1.7
		c0-0.3-0.1-0.6-0.2-0.9c0.3,0.1,0.7,0.2,1,0.2c0.7,0,1.4-0.3,1.9-0.8l0.1,0c0.5,0,1,0.2,1.4,0.6s0.6,0.9,0.6,1.4s-0.2,1-0.6,1.4
		c-0.2,0.2-0.2,0.5,0,0.7s0.5,0.2,0.7,0C40.3,28.5,40.6,27.8,40.6,27z M36.8,20.9c-0.1,0.1-0.3,0.1-0.4,0.2
		c-0.1-0.2-0.1-0.3-0.2-0.5C36.4,20.7,36.6,20.8,36.8,20.9z M33.6,20.1c1.1,0,1.9,0.9,1.9,1.9c0,0.3,0.2,0.5,0.5,0.5
		c0.2,0,0.3-0.1,0.4-0.2c0.4-0.3,0.8-0.5,1.3-0.5c0.4,0,0.7,0.1,1,0.3l0.1,0c0.1,0.1,0.2,0.1,0.3,0.2c0.4,0.4,0.6,0.9,0.6,1.4
		c0,0.3-0.1,0.7-0.3,1c-0.5-0.4-1.1-0.6-1.7-0.6c-0.7,0-1.4,0.3-1.9,0.8l-0.1,0c-0.5,0-1-0.2-1.4-0.6c-0.4-0.4-0.6-0.9-0.6-1.4
		c0-0.5,0.2-1,0.6-1.4c0.2-0.2,0.2-0.5,0-0.7s-0.5-0.2-0.7,0c-0.6,0.6-0.9,1.3-0.9,2.1c0,0.3,0.1,0.6,0.2,0.9
		c-0.3-0.1-0.7-0.2-1-0.2c-0.7,0-1.4,0.3-1.9,0.7c-0.5-0.4-1-0.6-1.6-0.7c0-0.2-0.1-0.3-0.1-0.5c0-0.5,0.2-1,0.6-1.4
		c0.4-0.4,0.9-0.6,1.4-0.6c0.2,0,0.4,0,0.6,0.1c0,0.2-0.1,0.4-0.1,0.6c0,0.3,0.2,0.5,0.5,0.5s0.5-0.2,0.5-0.5l0-0.1
		c0-0.4,0.1-0.7,0.3-1C32.4,20.4,32.9,20.1,33.6,20.1z M26.5,25.3v-1.2v-2.3c0-0.7,0.3-1.3,0.7-1.8c0.4-0.5,1.1-0.7,1.8-0.7
		c1.1,0,2.1,0.1,3,0.2c-0.4,0.2-0.7,0.6-1,1c-0.3-0.1-0.6-0.2-0.9-0.2c-0.7,0-1.5,0.3-2.1,0.9s-0.9,1.3-0.9,2.1c0,0.2,0,0.4,0.1,0.5
		c0.1,0.3,0.2,0.6,0.4,0.9c0.1,0,0.2,0,0.3,0c0.3,0,0.7,0.1,1,0.3c0.1,0.1,0.3,0.2,0.4,0.3c0.4,0.4,0.6,0.9,0.6,1.4
		c0,0.3-0.1,0.7-0.3,1c-0.5-0.4-1.1-0.6-1.7-0.6c-0.5,0-1,0.1-1.4,0.4L26.5,25.3L26.5,25.3z M26,29.4l0.5-0.8l0,0
		c0.4-0.4,0.9-0.6,1.4-0.6s1,0.2,1.4,0.6c0.4,0.4,0.6,0.9,0.6,1.4c0,0.5-0.2,1-0.6,1.4c-0.2,0.2-0.2,0.5,0,0.7s0.5,0.2,0.7,0
		l0.2-0.2l0,0c0.4-0.4,0.9-0.6,1.4-0.6c0.5,0,1,0.2,1.4,0.6c0.4,0.4,0.6,0.9,0.6,1.4c0,0.4-0.1,0.7-0.3,1.1c-0.6-0.4-1.3-0.7-2-0.7
		c-0.1,0-0.3,0.1-0.4,0.2l-0.2,0.1c-0.4,0.4-1,0.7-1.6,0.7s-1.1-0.2-1.6-0.7s-0.7-1-0.7-1.6c0-0.6,0.2-1.1,0.7-1.6
		c0.2-0.2,0.2-0.5,0-0.7c-0.2-0.2-0.5-0.2-0.7,0l-0.2,0.3h0L26,30.9l-0.5-0.7h0l-0.2-0.3c-0.2-0.2-0.5-0.2-0.7,0
		c-0.2,0.2-0.2,0.5,0,0.7c0.4,0.4,0.7,1,0.7,1.6s-0.2,1.1-0.7,1.6c-0.4,0.4-1,0.7-1.6,0.7s-1.1-0.2-1.6-0.7l-0.1-0.1
		c-0.1-0.1-0.2-0.2-0.4-0.2c-0.8,0-1.5,0.2-2,0.7c-0.2-0.3-0.3-0.7-0.3-1.1c0-0.5,0.2-1,0.6-1.4s0.9-0.6,1.4-0.6
		c0.5,0,1,0.2,1.4,0.6l0,0L22,32c0.2,0.2,0.5,0.2,0.7,0s0.2-0.5,0-0.7c-0.4-0.4-0.6-0.9-0.6-1.4s0.2-1,0.6-1.4
		c0.4-0.4,0.9-0.6,1.4-0.6s1,0.2,1.4,0.6l0,0L26,29.4z M23,19.3c0.8,0,1.4,0.3,1.8,0.7c0.4,0.5,0.7,1.1,0.7,1.8v2.3v1.2v2.1
		c-0.4-0.2-0.9-0.4-1.4-0.4c-0.6,0-1.2,0.2-1.7,0.6c-0.2-0.3-0.3-0.6-0.3-1c0-0.5,0.2-1,0.6-1.4c0.1-0.1,0.2-0.2,0.4-0.3
		c0.3-0.2,0.6-0.3,1-0.3c0.1,0,0.2,0,0.3,0c0.2-0.3,0.3-0.6,0.4-0.9c0-0.2,0.1-0.4,0.1-0.5c0-0.7-0.3-1.5-0.9-2.1s-1.3-0.9-2.1-0.9
		c-0.3,0-0.6,0.1-0.9,0.2c-0.2-0.4-0.6-0.7-1-1C20.9,19.4,21.9,19.3,23,19.3z M16.5,22c0-1.1,0.9-1.9,1.9-1.9c0.7,0,1.3,0.3,1.6,0.9
		c0.2,0.3,0.3,0.6,0.3,1l0,0.1c0,0.3,0.2,0.5,0.5,0.5c0.3,0,0.5-0.2,0.5-0.5c0-0.2,0-0.4-0.1-0.6c0.2-0.1,0.4-0.1,0.6-0.1
		c0.5,0,1,0.2,1.4,0.6s0.6,0.9,0.6,1.4c0,0.2,0,0.3-0.1,0.5c-0.6,0.1-1.1,0.3-1.6,0.7c-0.5-0.5-1.2-0.7-1.9-0.7
		c-0.3,0-0.7,0.1-1,0.2c0.1-0.3,0.2-0.6,0.2-0.9c0-0.7-0.3-1.5-0.9-2.1c-0.2-0.2-0.5-0.2-0.7,0s-0.2,0.5,0,0.7
		c0.4,0.4,0.6,0.9,0.6,1.4s-0.2,1-0.6,1.4s-0.9,0.6-1.4,0.6l-0.1,0c-0.6-0.5-1.2-0.8-1.9-0.8c-0.6,0-1.2,0.2-1.7,0.6
		c-0.2-0.3-0.3-0.6-0.3-1c0-0.5,0.2-1,0.6-1.4c0.1-0.1,0.2-0.2,0.3-0.2l0.1,0c0.3-0.2,0.7-0.3,1-0.3c0.5,0,0.9,0.2,1.3,0.5
		c0.1,0.1,0.2,0.2,0.4,0.2C16.3,22.5,16.5,22.3,16.5,22z M35,15c-1.3,0-2.3-1-2.3-2.3c0-1.3,1-2.3,2.3-2.3c1.3,0,2.3,1,2.3,2.3
		C37.3,13.9,36.3,15,35,15z M44.3,10.3c1.3,0,2.3,1,2.3,2.3c0,1.3-1,2.3-2.3,2.3c-1.3,0-2.3-1-2.3-2.3C42,11.4,43,10.3,44.3,10.3z"
		/>
</g>
</svg>
