<?xml version="1.0" encoding="utf-8"?>
<!-- Generator: Adobe Illustrator 19.2.1, SVG Export Plug-In . SVG Version: 6.00 Build 0)  -->
<svg version="1.1" id="Layer_1" xmlns="http://www.w3.org/2000/svg" xmlns:xlink="http://www.w3.org/1999/xlink" x="0px" y="0px"
	 viewBox="0 0 39 48" style="enable-background:new 0 0 39 48;" xml:space="preserve">
<path d="M38.4,5.6C38,5.2,37.5,5,37,5h-2V4c0-0.3-0.1-0.5-0.3-0.7l-3-3C31.5,0.1,31.3,0,31,0H10C9.7,0,9.5,0.1,9.3,0.3l-3,3
	C6.1,3.5,6,3.7,6,4v1H4C3.5,5,3,5.2,2.6,5.6S2,6.5,2,7v2H0v2h3h1v7c0,0.3,0.1,0.5,0.3,0.7L7,21.4v14.7C4.2,36.6,2,39,2,42
	c0,3.3,2.7,6,6,6s6-2.7,6-6c0-3-2.2-5.4-5-5.9V21c0-0.3-0.1-0.5-0.3-0.7L6,17.6V11h3V9H4V7h33v2H11v2h24v32c0,0.8-0.3,1.6-0.9,2.1
	S32.8,46,32,46H15v2h17c1.3,0,2.6-0.5,3.5-1.5S37,44.3,37,43V11h1c0.6,0,1-0.4,1-1V7C39,6.5,38.8,6,38.4,5.6z M12,42
	c0,2.2-1.8,4-4,4s-4-1.8-4-4s1.8-4,4-4S12,39.8,12,42z M8,4.4L10.4,2h20.2L33,4.4V5H8V4.4z M7,41h2v2H7V41z M26,23h1.7
	c-1.3-1.9-3.4-3-5.7-3c-3.9,0-7,3.1-7,7s3.1,7,7,7s7-3.1,7-7h2c0,5-4,9-9,9s-9-4-9-9s4-9,9-9c2.8,0,5.3,1.3,7,3.3V20h2v4
	c0,0.6-0.4,1-1,1h-4V23z M19,27c0,1.7,1.3,3,3,3v2c-2.8,0-5-2.2-5-5s2.2-5,5-5v2C20.3,24,19,25.3,19,27z M17,43v-2h2v2H17z M21,41h2
	v2h-2V41z M25,43v-2h2v2H25z"/>
</svg>
