<svg xmlns="http://www.w3.org/2000/svg" viewBox="0 0 343.62 122.05"><defs><style>.cls-1,.cls-2{fill:#3d0d4d;}.cls-2{font-size:22px;font-family:AktivGrotesk-Regular, Aktiv Grotesk;}.cls-3{letter-spacing:-0.02em;}.cls-4{letter-spacing:0.02em;}.cls-5{letter-spacing:-0.05em;}.cls-6{letter-spacing:-0.02em;}.cls-7{letter-spacing:-0.02em;}.cls-8{letter-spacing:-0.05em;}</style></defs><title>Artboard 1</title><g id="Layer_1" data-name="Layer 1"><path class="cls-1" d="M83.56,27.46A18.32,18.32,0,0,1,82.06,33a13.63,13.63,0,0,1-8,7.38,19,19,0,0,1-6.6,1.05,18.69,18.69,0,0,1-7.35-1.38,14.71,14.71,0,0,1-5.53-4,18.75,18.75,0,0,1-3.51-6.49,28.41,28.41,0,0,1-1.24-8.76,27.21,27.21,0,0,1,1.33-8.84,18.74,18.74,0,0,1,3.7-6.52,15.76,15.76,0,0,1,5.61-4,17.6,17.6,0,0,1,7-1.38,18.92,18.92,0,0,1,6.3.94,12.87,12.87,0,0,1,4.5,2.65,13.33,13.33,0,0,1,3,4.09A23.5,23.5,0,0,1,83,12.93l-5,.83a20.17,20.17,0,0,0-1.3-3.9,9.84,9.84,0,0,0-2-3,8.26,8.26,0,0,0-3-1.85,12.41,12.41,0,0,0-4.23-.64,10.89,10.89,0,0,0-9.09,4.5A15.45,15.45,0,0,0,56,14.06a25.06,25.06,0,0,0-.83,6.66A25.05,25.05,0,0,0,56,27.38a15.76,15.76,0,0,0,2.4,5.17,10.77,10.77,0,0,0,3.87,3.32A11.53,11.53,0,0,0,67.53,37a13.58,13.58,0,0,0,4.61-.69,8.25,8.25,0,0,0,3.15-2,9.28,9.28,0,0,0,2-3,17.52,17.52,0,0,0,1.05-3.87Z"/><path class="cls-1" d="M89.74,1h5.14V6.58H89.74Zm.17,10.89h4.81V40.45H89.91Z"/><path class="cls-1" d="M98.92,11.88h5.58L113,35.09l8.68-23.21H127L115.49,40.45h-5.14Z"/><path class="cls-1" d="M131,1h5.14V6.58H131Zm.17,10.89h4.81V40.45h-4.81Z"/><path class="cls-1" d="M143.57,1h4.81V40.45h-4.81Z"/><path d="M49.28,51.89h5.16v4.74a13.84,13.84,0,0,1,5-4.38,13.32,13.32,0,0,1,5.82-1.32q5.28,0,7.83,2.88t2.55,8.46V82.92H70.46V63.29q0-4.32-1.56-6.09a6.08,6.08,0,0,0-4.8-1.77,10.39,10.39,0,0,0-3.45.6A8.54,8.54,0,0,0,57.56,58a10,10,0,0,0-2.28,2.79,8.11,8.11,0,0,0-.78,3.81V82.92H49.28Z"/><path d="M86.36,85.79a6.15,6.15,0,0,0,2.55,4Q90.8,91,94.82,91q4.92,0,6.81-2.73t1.89-7.95V77a12.82,12.82,0,0,1-4.35,3.9,12.36,12.36,0,0,1-6,1.38,13.06,13.06,0,0,1-5.85-1.23,11.44,11.44,0,0,1-4.11-3.36,14.85,14.85,0,0,1-2.43-5A21.86,21.86,0,0,1,80,66.71a20.5,20.5,0,0,1,1-6.45,14.33,14.33,0,0,1,2.76-5,12.39,12.39,0,0,1,4.35-3.21,13.89,13.89,0,0,1,5.73-1.14,13.39,13.39,0,0,1,5.13,1,11.28,11.28,0,0,1,4.65,3.87v-4h5.16v26a41.6,41.6,0,0,1-.57,7.23,13.92,13.92,0,0,1-2.1,5.46A9.78,9.78,0,0,1,101.84,94a17.26,17.26,0,0,1-7,1.2q-6.12,0-9.6-2.19T81.2,85.79Zm17.28-19.56a15.77,15.77,0,0,0-.72-5.13,9.22,9.22,0,0,0-2-3.39A7.27,7.27,0,0,0,98,55.83a10.47,10.47,0,0,0-3.45-.57,9.9,9.9,0,0,0-3.57.63,7.32,7.32,0,0,0-2.88,2,9.66,9.66,0,0,0-1.92,3.54,17.27,17.27,0,0,0-.69,5.22,16.19,16.19,0,0,0,.75,5.28,10,10,0,0,0,2,3.48A7.14,7.14,0,0,0,91,77.34a9,9,0,0,0,3.21.6A10.3,10.3,0,0,0,98,77.27a8.06,8.06,0,0,0,3-2,9.25,9.25,0,0,0,2-3.33,14,14,0,0,0,.72-4.71Z"/><path d="M133.7,78.66a15.19,15.19,0,0,1-4.26,3.51A12.83,12.83,0,0,1,123,83.64a15.25,15.25,0,0,1-4.29-.57,9.26,9.26,0,0,1-3.36-1.74,8,8,0,0,1-2.19-2.91,9.9,9.9,0,0,1-.78-4.08,9,9,0,0,1,1.35-5.16,9.42,9.42,0,0,1,3.6-3.12,17.78,17.78,0,0,1,5.07-1.62,45.43,45.43,0,0,1,5.82-.6l5.34-.18v-1.2q0-4-1.68-5.7T126.44,55q-3.72,0-5.46,1.23a5.7,5.7,0,0,0-2.28,3.39L114,59.1a8.88,8.88,0,0,1,4-6.21q3.18-1.95,8.64-2a17.25,17.25,0,0,1,5.67.81A9.41,9.41,0,0,1,136,54.06a8.7,8.7,0,0,1,2.07,3.72,18.24,18.24,0,0,1,.63,5V82.92h-5Zm-.12-11.28-5,.18a29.27,29.27,0,0,0-5.28.6A10.25,10.25,0,0,0,120,69.44a4.51,4.51,0,0,0-1.74,2,7,7,0,0,0-.51,2.76A5.06,5.06,0,0,0,119.15,78q1.41,1.41,4.65,1.41,4.62,0,7.2-2.28a7.9,7.9,0,0,0,2.58-6.24Z"/><path d="M149.54,85.79a6.15,6.15,0,0,0,2.55,4Q154,91,158,91q4.92,0,6.81-2.73t1.89-7.95V77a12.81,12.81,0,0,1-4.35,3.9,12.36,12.36,0,0,1-6,1.38,13.06,13.06,0,0,1-5.85-1.23,11.44,11.44,0,0,1-4.11-3.36,14.85,14.85,0,0,1-2.43-5,21.86,21.86,0,0,1-.81-6.06,20.5,20.5,0,0,1,1-6.45,14.33,14.33,0,0,1,2.76-5,12.39,12.39,0,0,1,4.35-3.21A13.89,13.89,0,0,1,157,50.93a13.39,13.39,0,0,1,5.13,1,11.28,11.28,0,0,1,4.65,3.87v-4h5.16v26a41.69,41.69,0,0,1-.57,7.23,13.94,13.94,0,0,1-2.1,5.46A9.78,9.78,0,0,1,165,94a17.26,17.26,0,0,1-7,1.2q-6.12,0-9.6-2.19t-4.08-7.23Zm17.28-19.56a15.75,15.75,0,0,0-.72-5.13,9.22,9.22,0,0,0-2-3.39,7.27,7.27,0,0,0-2.91-1.89,10.47,10.47,0,0,0-3.45-.57,9.9,9.9,0,0,0-3.57.63,7.32,7.32,0,0,0-2.88,2,9.66,9.66,0,0,0-1.92,3.54,17.27,17.27,0,0,0-.69,5.22,16.19,16.19,0,0,0,.75,5.28,10,10,0,0,0,2,3.48,7.14,7.14,0,0,0,2.79,1.92,9,9,0,0,0,3.21.6,10.3,10.3,0,0,0,3.75-.66,8.06,8.06,0,0,0,3-2,9.25,9.25,0,0,0,2-3.33,13.94,13.94,0,0,0,.72-4.71Z"/><path d="M204.38,74.21a11.17,11.17,0,0,1-4,7.08q-3.21,2.58-9.21,2.58-7.08,0-10.86-4.29t-3.78-12a21.79,21.79,0,0,1,1.08-7.14,14.54,14.54,0,0,1,3-5.22A13,13,0,0,1,185.3,52a16.72,16.72,0,0,1,12.06,0,11.26,11.26,0,0,1,4.23,3.15A13.35,13.35,0,0,1,204,60a21.45,21.45,0,0,1,.81,6.06v2.64h-23a14.47,14.47,0,0,0,.63,4.35,10.6,10.6,0,0,0,1.8,3.48,8.24,8.24,0,0,0,2.91,2.31,9.13,9.13,0,0,0,4,.84q3.9,0,5.7-1.47a7.4,7.4,0,0,0,2.46-4Zm-4.74-9.42a15.64,15.64,0,0,0-.48-4,8.43,8.43,0,0,0-1.5-3.09,6.86,6.86,0,0,0-2.64-2,9.56,9.56,0,0,0-3.9-.72,8.31,8.31,0,0,0-6.45,2.52q-2.31,2.52-2.73,7.32Z"/><path d="M209.35,51.89h5.16v4.74a14.7,14.7,0,0,1,4.62-4.29,10.45,10.45,0,0,1,5.16-1.41,9.55,9.55,0,0,1,5.61,1.5,8.74,8.74,0,0,1,3.15,4.32,14.66,14.66,0,0,1,4.8-4.35,11.87,11.87,0,0,1,5.76-1.47q4.56,0,7,2.49t2.49,8V82.92h-5.22V62.64a14.47,14.47,0,0,0-.36-3.51,5.48,5.48,0,0,0-1-2.22,3.7,3.7,0,0,0-1.71-1.14,7.65,7.65,0,0,0-2.34-.33,9.43,9.43,0,0,0-2.88.48,8.82,8.82,0,0,0-2.94,1.68,8.51,8.51,0,0,0-2,2.46,6.81,6.81,0,0,0-.78,3.3V82.92h-5.22V62.69q0-4.08-1.41-5.67a5.13,5.13,0,0,0-4-1.59A8.34,8.34,0,0,0,217.45,58a12.15,12.15,0,0,0-2,2.46,7.57,7.57,0,0,0-.93,4V82.92h-5.22Z"/><path d="M285.43,74.21a11.17,11.17,0,0,1-4,7.08q-3.21,2.58-9.21,2.58-7.08,0-10.86-4.29t-3.78-12a21.79,21.79,0,0,1,1.08-7.14,14.54,14.54,0,0,1,3-5.22A13,13,0,0,1,266.35,52a16.72,16.72,0,0,1,12.06,0,11.26,11.26,0,0,1,4.23,3.15A13.35,13.35,0,0,1,285.1,60a21.45,21.45,0,0,1,.81,6.06v2.64h-23A14.47,14.47,0,0,0,263.5,73a10.6,10.6,0,0,0,1.8,3.48,8.24,8.24,0,0,0,2.91,2.31,9.13,9.13,0,0,0,4,.84q3.9,0,5.7-1.47a7.4,7.4,0,0,0,2.46-4Zm-4.74-9.42a15.64,15.64,0,0,0-.48-4,8.43,8.43,0,0,0-1.5-3.09,6.86,6.86,0,0,0-2.64-2,9.56,9.56,0,0,0-3.9-.72,8.31,8.31,0,0,0-6.45,2.52Q263.41,60,263,64.79Z"/><path d="M290.41,51.89h5.16v4.74a13.85,13.85,0,0,1,5-4.38,13.33,13.33,0,0,1,5.82-1.32q5.28,0,7.83,2.88t2.55,8.46V82.92h-5.22V63.29q0-4.32-1.56-6.09a6.07,6.07,0,0,0-4.8-1.77,10.4,10.4,0,0,0-3.45.6A8.54,8.54,0,0,0,298.69,58a10,10,0,0,0-2.28,2.79,8.12,8.12,0,0,0-.78,3.81V82.92h-5.22Z"/><path d="M324,56h-4.8V51.89H324V43.43h5.22v8.46h8.22V56h-8.22V74.21a6,6,0,0,0,1,3.66,3.62,3.62,0,0,0,3.12,1.38,13.15,13.15,0,0,0,2.31-.18,11.62,11.62,0,0,0,1.83-.48l.9,4a18.31,18.31,0,0,1-2.61.69,18,18,0,0,1-3.33.27,9.89,9.89,0,0,1-4.26-.78,6.33,6.33,0,0,1-2.58-2.22,8.63,8.63,0,0,1-1.29-3.42,26.27,26.27,0,0,1-.33-4.32Z"/><path d="M0,27.47C13.77,41,27.54,9.69,41.31,19.64q0,3.62,0,7.24c-11-8-22.06,10.5-33.08,11.24q0,10,0,20c10.43-.7,20.86-17.26,31.29-12.31v7.33c-10.43-5-20.86,11.6-31.29,12.31q0,11,0,22C19.82,86.7,31.41,66.33,43,77.68q-.67,3-1.34,6.07C27.78,73,13.89,104.91,0,91.31Q0,59.39,0,27.47Z"/><text class="cls-2" transform="translate(17.62 115.45)"><tspan class="cls-3">Goo</tspan><tspan class="cls-4" x="40.88" y="0">d</tspan><tspan class="cls-3" x="54.43" y="0"> </tspan><tspan class="cls-5" x="58.89" y="0">P</tspan><tspan class="cls-6" x="71.46" y="0">eopl</tspan><tspan x="113.54" y="0">e </tspan><tspan class="cls-3" x="130.99" y="0">Doin</tspan><tspan x="175.65" y="0">g </tspan><tspan class="cls-7" x="193.64" y="0">G</tspan><tspan class="cls-8" x="208.96" y="0">r</tspan><tspan class="cls-7" x="215.91" y="0">ea</tspan><tspan x="239.4" y="0">t </tspan><tspan class="cls-6" x="251.94" y="0">Things!</tspan></text></g></svg>