<?xml version="1.0" encoding="utf-8"?>
<!-- Generator: Adobe Illustrator 19.2.1, SVG Export Plug-In . SVG Version: 6.00 Build 0)  -->
<svg version="1.1" xmlns="http://www.w3.org/2000/svg" xmlns:xlink="http://www.w3.org/1999/xlink" x="0px" y="0px"
	 viewBox="0 0 175.6 175.6" style="enable-background:new 0 0 175.6 175.6;" xml:space="preserve">
<style type="text/css">
	.st0{fill:none;}
	.st1{clip-path:url(#SVGID_3_);}
	.st2{opacity:0;fill:#833AB4;}
	.st3{opacity:4.761905e-02;fill:#833AB4;}
	.st4{opacity:9.523810e-02;fill:#833AB4;}
	.st5{opacity:0.1429;fill:#833AB4;}
	.st6{opacity:0.1905;fill:#833AB4;}
	.st7{opacity:0.2381;fill:#833AB4;}
	.st8{opacity:0.2857;fill:#833AB4;}
	.st9{opacity:0.3333;fill:#833AB4;}
	.st10{opacity:0.381;fill:#833AB4;}
	.st11{opacity:0.4286;fill:#833AB4;}
	.st12{opacity:0.4762;fill:#833AB4;}
	.st13{opacity:0.5238;fill:#833AB4;}
	.st14{opacity:0.5714;fill:#833AB4;}
	.st15{opacity:0.619;fill:#833AB4;}
	.st16{opacity:0.6667;fill:#833AB4;}
	.st17{opacity:0.7143;fill:#833AB4;}
	.st18{opacity:0.7619;fill:#833AB4;}
	.st19{opacity:0.8095;fill:#833AB4;}
	.st20{opacity:0.8571;fill:#833AB4;}
	.st21{opacity:0.9048;fill:#833AB4;}
	.st22{opacity:0.9524;fill:#833AB4;}
	.st23{fill:#833AB4;}
	.st24{fill:#FFFFFF;}
</style>
<g id="on_the_air">
	<path id="SVGID_x5F_1_x5F_" class="st0" d="M154.1,87.8c0,36.6-29.7,66.3-66.3,66.3s-66.3-29.7-66.3-66.3s29.7-66.3,66.3-66.3
		S154.1,51.2,154.1,87.8z"/>
	<text>	<textPath  xlink:href="#SVGID_x5F_1_x5F_" startOffset="69.987%">
<tspan  style="font-family:'Roboto-Bold'; font-size:19.4098px; letter-spacing:80;">OPINION IS POWER</tspan>	</textPath>
</text>
	<g>
		<path d="M87.8,2.2c47.2,0,85.7,38.4,85.7,85.7c0,47.2-38.4,85.7-85.7,85.7c-47.2,0-85.7-38.4-85.7-85.7
			C2.2,40.6,40.6,2.2,87.8,2.2 M87.8,0C39.4,0,0,39.4,0,87.8s39.4,87.8,87.8,87.8s87.8-39.4,87.8-87.8S136.2,0,87.8,0L87.8,0z"/>
	</g>
	<g>
		<defs>
			<path id="SVGID_2_" d="M87.8,146.9c-32.6,0-59.1-26.5-59.1-59.1s26.5-59.1,59.1-59.1c32.6,0,59.1,26.5,59.1,59.1
				S120.4,146.9,87.8,146.9z"/>
		</defs>
		<clipPath id="SVGID_3_">
			<use xlink:href="#SVGID_2_"  style="overflow:visible;"/>
		</clipPath>
		<g class="st1">
			<rect x="17.5" y="20.3" class="st2" width="141" height="3"/>
			<rect x="17.5" y="29.3" class="st3" width="141" height="3"/>
			<rect x="17.5" y="38.3" class="st4" width="141" height="3"/>
			<rect x="17.5" y="46.3" class="st5" width="141" height="4"/>
			<rect x="17.5" y="55.3" class="st6" width="141" height="3"/>
			<rect x="17.5" y="63.3" class="st7" width="141" height="4"/>
			<rect x="17.5" y="72.3" class="st8" width="141" height="4"/>
			<rect x="17.5" y="81.3" class="st9" width="141" height="4"/>
			<rect x="17.5" y="89.3" class="st10" width="141" height="5"/>
			<rect x="17.5" y="98.3" class="st11" width="141" height="5"/>
			<rect x="17.5" y="106.3" class="st12" width="141" height="6"/>
			<rect x="17.5" y="115.3" class="st13" width="141" height="5"/>
			<rect x="17.5" y="124.3" class="st14" width="141" height="5"/>
			<rect x="17.5" y="132.3" class="st15" width="141" height="6"/>
			<rect x="17.5" y="141.3" class="st16" width="141" height="6"/>
			<rect x="17.5" y="149.3" class="st17" width="141" height="7"/>
			<rect x="17.5" y="158.3" class="st18" width="141" height="7"/>
			<rect x="17.5" y="167.3" class="st19" width="141" height="7"/>
			<rect x="17.5" y="175.3" class="st20" width="141" height="7"/>
			<rect x="17.5" y="184.3" class="st21" width="141" height="7"/>
			<rect x="17.5" y="192.3" class="st22" width="141" height="8"/>
			<rect x="17.5" y="201.3" class="st23" width="141" height="8"/>
		</g>
		<g id="XMLID_1_" class="st1">
			<g>
				<path d="M116.5,90.5V121c0,9-7.2,16.1-16.1,16.1H89.6v23.3h14.3c1.1,0,1.8,0.7,1.8,1.8c0,1.1-0.7,1.8-1.8,1.8H71.7
					c-1.1,0-1.8-0.7-1.8-1.8c0-1.1,0.7-1.8,1.8-1.8H86v-23.3H75.3c-9,0-16.1-7.2-16.1-16.1V90.5c0-1.1,0.7-1.8,1.8-1.8
					c1.1,0,1.8,0.7,1.8,1.8V121c0,7,5.5,12.5,12.5,12.5h25.1c7,0,12.5-5.6,12.5-12.5V90.5c0-1.1,0.7-1.8,1.8-1.8
					C115.8,88.8,116.5,89.5,116.5,90.5z"/>
				<path d="M93.2,73.9L89.1,78l4.1,4.1l4.1-4.1L93.2,73.9z M98.6,57.8l-4.1,4.1l4.1,4.1l4.1-4.1L98.6,57.8z M98.6,68.5l-4.1,4.1
					l4.1,4.1l4.1-4.1L98.6,68.5z M98.6,79.3l-4.1,4.1h8.2L98.6,79.3z M77.1,57.8L73,61.9l4.1,4.1l4.1-4.1L77.1,57.8z M77.1,68.5
					L73,72.6l4.1,4.1l4.1-4.1L77.1,68.5z M77.1,79.3L73,83.4h8.2L77.1,79.3z M107.5,58.3v60.9c0,5-3.9,9-9,9H77.1c-5,0-9-3.9-9-9
					V58.3c0-5,3.9-9,9-9h21.5C103.6,49.4,107.5,53.3,107.5,58.3z M103.9,60.6c0-2.4,0.3-4.3-1.8-6.4l-2.3,2.3L103.9,60.6z
					 M103.9,119.2V97.7H71.7v21.5c0,3,2.3,5.4,5.4,5.4h21.5C101.6,124.6,103.9,122.2,103.9,119.2z M103.9,94.1V87H71.7v7.2H103.9z
					 M103.9,82.1v-8.2L99.8,78L103.9,82.1z M103.9,71.4v-8.2l-4.1,4.1L103.9,71.4z M98.6,55.3l2-2c-1.8-0.5-1.2-0.4-4.3-0.4
					L98.6,55.3z M93.2,60.6l4.1-4.1l-3.6-3.6h-1.1l-3.6,3.6L93.2,60.6z M97.3,67.3l-4.1-4.1l-4.1,4.1l4.1,4.1L97.3,67.3z M87.8,66
					l4.1-4.1l-4.1-4.1l-4.1,4.1L87.8,66z M87.8,76.8l4.1-4.1l-4.1-4.1l-4.1,4.1L87.8,76.8z M83.7,83.4h8.2l-4.1-4.1L83.7,83.4z
					 M87.8,55.3l2.3-2.3h-4.7L87.8,55.3z M82.4,60.6l4.1-4.1L83,52.9h-1.1l-3.6,3.6L82.4,60.6z M82.4,82.1l4.1-4.1l-4.1-4.1L78.3,78
					L82.4,82.1z M82.4,71.4l4.1-4.1l-4.1-4.1l-4.1,4.1L82.4,71.4z M77.1,55.3l2.3-2.3c-1.6,0-2.8-0.1-4.3,0.4L77.1,55.3z M75.8,56.5
					l-2.3-2.3c-2.1,2.1-1.8,4.1-1.8,6.4L75.8,56.5z M75.8,67.3l-4.1-4.1v8.2L75.8,67.3z M75.8,78l-4.1-4.1v8.2L75.8,78z"/>
				<path class="st24" d="M102.1,54.2c2.1,2.1,1.8,4.1,1.8,6.4l-4.1-4.1L102.1,54.2z"/>
				<path class="st24" d="M103.9,97.7v21.5c0,3-2.3,5.4-5.4,5.4H77.1c-3,0-5.4-2.3-5.4-5.4V97.7H103.9z"/>
				<rect x="71.7" y="87" class="st24" width="32.2" height="7.2"/>
				<polygon class="st24" points="103.9,73.9 103.9,82.1 99.8,78 				"/>
				<polygon class="st24" points="103.9,63.2 103.9,71.4 99.8,67.3 				"/>
				
					<rect x="95.7" y="59" transform="matrix(0.7071 -0.7071 0.7071 0.7071 -14.8993 87.8233)" class="st24" width="5.8" height="5.8"/>
				
					<rect x="95.7" y="69.7" transform="matrix(0.7071 -0.7071 0.7071 0.7071 -22.4988 90.9711)" class="st24" width="5.8" height="5.8"/>
				<polygon class="st24" points="102.7,83.4 94.4,83.4 98.6,79.3 				"/>
				<path class="st24" d="M100.5,53.3l-2,2l-2.3-2.3C99.3,52.9,98.7,52.9,100.5,53.3z"/>
				<polygon class="st24" points="97.3,56.5 93.2,60.6 89.1,56.5 92.7,52.9 93.7,52.9 				"/>
				<polygon class="st24" points="93.2,63.2 97.3,67.3 93.2,71.4 89.1,67.3 				"/>
				<polygon class="st24" points="93.2,73.9 97.3,78 93.2,82.1 89.1,78 				"/>
				
					<rect x="84.9" y="59" transform="matrix(0.7071 -0.7071 0.7071 0.7071 -18.0458 80.2233)" class="st24" width="5.8" height="5.8"/>
				
					<rect x="84.9" y="69.7" transform="matrix(0.7071 -0.7071 0.7071 0.7071 -25.6453 83.3711)" class="st24" width="5.8" height="5.8"/>
				<polygon class="st24" points="91.9,83.4 83.7,83.4 87.8,79.3 				"/>
				<polygon class="st24" points="90.1,52.9 87.8,55.3 85.5,52.9 				"/>
				<polygon class="st24" points="86.6,56.5 82.4,60.6 78.3,56.5 81.9,52.9 83,52.9 				"/>
				
					<rect x="79.5" y="75.1" transform="matrix(0.7071 -0.7071 0.7071 0.7071 -31.0153 81.1468)" class="st24" width="5.8" height="5.8"/>
				
					<rect x="79.5" y="64.4" transform="matrix(0.7077 -0.7065 0.7065 0.7077 -23.429 77.9081)" class="st24" width="5.8" height="5.8"/>
				
					<rect x="74.2" y="59" transform="matrix(0.7071 -0.7071 0.7071 0.7071 -21.1928 72.6295)" class="st24" width="5.8" height="5.8"/>
				
					<rect x="74.2" y="69.7" transform="matrix(0.7071 -0.7071 0.7071 0.7071 -28.7923 75.7773)" class="st24" width="5.8" height="5.8"/>
				<polygon class="st24" points="81.2,83.4 73,83.4 77.1,79.3 				"/>
				<path class="st24" d="M79.4,52.9l-2.3,2.3l-2-2C76.6,52.8,77.8,52.9,79.4,52.9z"/>
				<path class="st24" d="M73.5,54.2l2.3,2.3l-4.1,4.1C71.7,58.3,71.4,56.3,73.5,54.2z"/>
				<polygon class="st24" points="71.7,63.2 75.8,67.3 71.7,71.4 				"/>
				<polygon class="st24" points="71.7,73.9 75.8,78 71.7,82.1 				"/>
			</g>
			<g>
			</g>
		</g>
	</g>
	<g>
		<path d="M87.8,30.9c31.4,0,56.9,25.5,56.9,56.9c0,31.4-25.5,56.9-56.9,56.9c-31.4,0-56.9-25.5-56.9-56.9
			C30.9,56.4,56.4,30.9,87.8,30.9 M87.8,28.8c-32.6,0-59.1,26.5-59.1,59.1s26.5,59.1,59.1,59.1c32.6,0,59.1-26.5,59.1-59.1
			S120.4,28.8,87.8,28.8L87.8,28.8z"/>
	</g>
	<path id="SVGID_x5F_4_x5F_" class="st0" d="M24.1,87.8c0-35.2,28.5-63.7,63.7-63.7s63.7,28.5,63.7,63.7s-28.5,63.7-63.7,63.7
		S24.1,123,24.1,87.8z"/>
	<text>	<textPath  xlink:href="#SVGID_x5F_4_x5F_" startOffset="15.9668%">
<tspan  style="font-family:'Roboto-Bold'; font-size:18.6743px; letter-spacing:60;">ON THE AIR</tspan>	</textPath>
</text>
</g>
<g id="Sandbox">
	<g>
		<path class="st23" d="M87.8,331C87.8,331,87.8,331,87.8,331L87.8,331c-0.2,0.2-0.3,0.3-0.4,0.4l0,0c-0.1,0.1-0.3,0.3-0.4,0.4l0,0
			c-0.2,0.2-0.3,0.3-0.6,0.6l0,0c-0.2,0.2-0.4,0.4-0.7,0.7l0,0c-0.2,0.2-0.5,0.5-0.7,0.7l0,0c-0.3,0.3-0.5,0.5-0.8,0.8l0,0
			c-0.3,0.3-0.5,0.5-0.8,0.8l0,0c-0.3,0.3-0.5,0.5-0.8,0.8l0,0c-0.3,0.3-0.5,0.5-0.8,0.8l0,0c-0.3,0.3-0.5,0.5-0.7,0.7l0,0
			c-0.2,0.2-0.5,0.5-0.7,0.7l0,0c-0.2,0.2-0.4,0.4-0.6,0.6l0,0c-0.2,0.2-0.3,0.3-0.4,0.4l0,0c-0.1,0.1-0.2,0.2-0.3,0.3l0,0
			c-0.1,0.1-0.1,0.1-0.1,0.1l0,0l2.1,2.1l6.5-6.5l7,7l2.1-2.1l0,0c0,0,0,0-0.1-0.1l0,0c-0.1-0.1-0.2-0.2-0.3-0.3l0,0
			c-0.1-0.1-0.3-0.3-0.4-0.4l0,0c-0.2-0.2-0.3-0.3-0.6-0.6l0,0c-0.2-0.2-0.4-0.4-0.7-0.7l0,0c-0.2-0.2-0.5-0.5-0.7-0.7l0,0
			c-0.3-0.3-0.5-0.5-0.8-0.8l0,0c-0.3-0.3-0.5-0.5-0.8-0.8l0,0c-0.3-0.3-0.5-0.5-0.8-0.8l0,0c-0.3-0.3-0.5-0.5-0.8-0.8l0,0
			c-0.3-0.3-0.5-0.5-0.7-0.7l0,0c-0.1-0.1-0.2-0.2-0.3-0.3l0,0L87.8,331L87.8,331z M75.6,343.2c0,0-0.1,0.1-0.4,0.4l0,0
			c-0.2,0.2-0.6,0.6-1,1l0,0c-0.4,0.4-0.9,0.9-1.4,1.4l0,0c-0.5,0.5-1,1-1.6,1.6l0,0c-0.5,0.5-1.1,1.1-1.6,1.6l0,0
			c-0.5,0.5-1,1-1.4,1.4l0,0c-0.4,0.4-0.7,0.7-1,1l0,0c-0.2,0.2-0.4,0.4-0.4,0.4l0,0l2.1,2.1l8.6-8.6L75.6,343.2L75.6,343.2z
			 M63.4,355.4C63.4,355.4,63.3,355.5,63.4,355.4L63.4,355.4c-0.2,0.2-0.3,0.3-0.4,0.4l0,0c-0.1,0.1-0.3,0.3-0.4,0.4l0,0
			c-0.2,0.2-0.3,0.3-0.6,0.6l0,0c-0.2,0.2-0.4,0.4-0.7,0.7l0,0c-0.2,0.2-0.5,0.5-0.7,0.7l0,0c-0.3,0.3-0.5,0.5-0.8,0.8l0,0
			c-0.3,0.3-0.5,0.5-0.8,0.8l0,0c-0.3,0.3-0.5,0.5-0.8,0.8l0,0c-0.3,0.3-0.5,0.5-0.8,0.8l0,0c-0.3,0.3-0.5,0.5-0.7,0.7l0,0
			c-0.2,0.2-0.5,0.5-0.7,0.7l0,0c-0.2,0.2-0.4,0.4-0.6,0.6l0,0c-0.2,0.2-0.3,0.3-0.4,0.4l0,0c-0.1,0.1-0.2,0.2-0.3,0.3l0,0
			c-0.1,0.1-0.1,0.1-0.1,0.1l0,0l2.1,2.1l8.6-8.6L63.4,355.4L63.4,355.4z M51.2,367.7c0,0-0.1,0.1-0.4,0.4l0,0c-0.2,0.2-0.6,0.6-1,1
			l0,0c-0.4,0.4-0.9,0.9-1.4,1.4l0,0c-0.5,0.5-1,1-1.6,1.6l0,0c-0.5,0.5-1.1,1.1-1.6,1.6l0,0c-0.5,0.5-1,1-1.4,1.4l0,0
			c-0.4,0.4-0.7,0.7-1,1l0,0c-0.2,0.2-0.4,0.4-0.4,0.4l0,0l2.1,2.1l8.6-8.6L51.2,367.7L51.2,367.7z M38.9,379.9
			C38.9,379.9,38.9,379.9,38.9,379.9L38.9,379.9c-0.2,0.2-0.3,0.3-0.4,0.4l0,0c-0.1,0.1-0.3,0.3-0.4,0.4l0,0
			c-0.2,0.2-0.3,0.3-0.6,0.6l0,0c-0.2,0.2-0.4,0.4-0.7,0.7l0,0c-0.2,0.2-0.5,0.5-0.7,0.7l0,0c-0.3,0.3-0.5,0.5-0.8,0.8l0,0
			c-0.3,0.3-0.5,0.5-0.8,0.8l0,0c-0.3,0.3-0.5,0.5-0.8,0.8l0,0c-0.3,0.3-0.5,0.5-0.8,0.8l0,0c-0.3,0.3-0.5,0.5-0.7,0.7l0,0
			c-0.2,0.2-0.5,0.5-0.7,0.7l0,0c-0.2,0.2-0.4,0.4-0.6,0.6l0,0c-0.2,0.2-0.3,0.3-0.4,0.4l0,0c-0.1,0.1-0.2,0.2-0.3,0.3l0,0
			c-0.1,0.1-0.1,0.1-0.1,0.1l0,0l2.1,2.1l8.6-8.6L38.9,379.9L38.9,379.9z M26.7,392.1C26.7,392.1,26.7,392.1,26.7,392.1L26.7,392.1
			c-0.2,0.2-0.3,0.3-0.4,0.4l0,0c-0.1,0.1-0.3,0.3-0.4,0.4l0,0c-0.2,0.2-0.3,0.3-0.6,0.6l0,0c-0.2,0.2-0.4,0.4-0.7,0.7l0,0
			c-0.2,0.2-0.5,0.5-0.7,0.7l0,0c-0.3,0.3-0.5,0.5-0.8,0.8l0,0c-0.3,0.3-0.5,0.5-0.8,0.8l0,0c-0.3,0.3-0.5,0.5-0.8,0.8l0,0
			c-0.3,0.3-0.5,0.5-0.8,0.8l0,0c-0.3,0.3-0.5,0.5-0.7,0.7l0,0c-0.2,0.2-0.5,0.5-0.7,0.7l0,0c-0.2,0.2-0.4,0.4-0.6,0.6l0,0
			c-0.2,0.2-0.3,0.3-0.4,0.4l0,0c-0.1,0.1-0.2,0.2-0.3,0.3l0,0c-0.1,0.1-0.1,0.1-0.1,0.1l0,0l2.1,2.1l8.6-8.6L26.7,392.1L26.7,392.1
			z M14.5,404.3C14.5,404.3,14.5,404.4,14.5,404.3L14.5,404.3c-0.2,0.2-0.3,0.3-0.4,0.4l0,0c-0.1,0.1-0.3,0.3-0.4,0.4l0,0
			c-0.2,0.2-0.3,0.3-0.6,0.6l0,0c-0.2,0.2-0.4,0.4-0.7,0.7l0,0c-0.2,0.2-0.5,0.5-0.7,0.7l0,0c-0.3,0.3-0.5,0.5-0.8,0.8l0,0
			c-0.3,0.3-0.5,0.5-0.8,0.8l0,0c-0.3,0.3-0.5,0.5-0.8,0.8l0,0c-0.3,0.3-0.5,0.5-0.8,0.8l0,0c-0.3,0.3-0.5,0.5-0.7,0.7l0,0
			c-0.2,0.2-0.5,0.5-0.7,0.7l0,0c-0.2,0.2-0.4,0.4-0.6,0.6l0,0c-0.2,0.2-0.3,0.3-0.4,0.4l0,0c-0.1,0.1-0.2,0.2-0.3,0.3l0,0
			c-0.1,0.1-0.1,0.1-0.1,0.1l0,0l2.1,2.1l8.6-8.6L14.5,404.3L14.5,404.3z M2.3,416.5C2.3,416.5,2.2,416.6,2.3,416.5L2.3,416.5
			c-0.1,0.1-0.1,0.1-0.1,0.1h0L0,418.8l0,0l0,0l0,0l0,0l0,0l0,0l0,0l2.1,2.1l0,0c1.8,1.8,4.2,4.2,4.2,4.2l2.1-2.1l-4.2-4.2l0.1-0.1
			L2.3,416.5L2.3,416.5z M12.1,426.6l-2.1,2.1l6.7,6.7c0,0,0,0,0,0l0,0c0,0,0,0,0,0l0,0c0,0,0,0,0,0l0,0c0,0,0,0,0,0l0,0
			c0,0,0,0,0,0l0,0c0,0,0,0,0,0l0,0c1,1,1.8,1.8,1.8,1.8l2.1-2.1L12.1,426.6L12.1,426.6z M24.3,438.9l-2.1,2.1l8.6,8.6l2.1-2.1
			L24.3,438.9L24.3,438.9z M36.5,451.1l-2.1,2.1l8.6,8.6l2.1-2.1L36.5,451.1L36.5,451.1z M48.7,463.3l-2.1,2.1l3.4,3.4c0,0,0,0,0,0
			l0,0l0,0l0,0l0,0l0,0c0,0,0,0,0,0l0,0c0,0,0,0,0,0l0,0c2.4,2.4,5.1,5.1,5.1,5.1l2.1-2.1L48.7,463.3L48.7,463.3z M61,475.5
			l-2.1,2.1l8.6,8.6l2.1-2.1L61,475.5L61,475.5z M73.2,487.8l-2.1,2.1l8.6,8.6l2.1-2.1L73.2,487.8L73.2,487.8z M85.4,500l-2.1,2.1
			l4.5,4.5l0,0l0,0l0,0l0,0l0,0l0,0l0,0l2.3-2.3c0,0,0,0,0,0l0.6-0.6c0,0,0,0,0,0l0.1-0.1c0,0,0,0,0,0l0,0c0,0,0,0,0,0l0.1-0.1l0,0
			l1-1l-2.1-2.1l-2,2L85.4,500L85.4,500z M102,488.2l-8.6,8.6l2.1,2.1l8.6-8.6L102,488.2L102,488.2z M114.2,476l-8.6,8.6l2.1,2.1
			c0,0,3.7-3.7,6.2-6.2l0,0c0,0,0,0,0,0l0,0c0,0,0,0,0,0l2.4-2.4L114.2,476L114.2,476z M126.4,463.8l-8.6,8.6l2.1,2.1l8.6-8.6
			L126.4,463.8L126.4,463.8z M138.7,451.5l-8.6,8.6l2.1,2.1l8.6-8.6L138.7,451.5L138.7,451.5z M150.9,439.3l-8.6,8.6l2.1,2.1
			c0,0,1.3-1.3,2.9-2.9l0,0c0,0,0,0,0,0l0,0c0,0,0,0,0,0l0,0c0,0,0,0,0,0l0,0c0,0,0,0,0,0l0,0c0,0,0,0,0,0l5.6-5.6L150.9,439.3
			L150.9,439.3z M163.1,427.1l-8.6,8.6l2.1,2.1l8.6-8.6L163.1,427.1L163.1,427.1z M173.5,416.7l-6.8,6.8l2.1,2.1
			c0,0,2.7-2.7,4.7-4.7l0,0l1.1-1.1l0,0l-1.1,1.1l1.1-1.1l0,0l0.8-0.8l0,0l0.3-0.3l0,0L173.5,416.7L173.5,416.7z M175.6,418.8
			l-0.3,0.3l0,0L175.6,418.8L175.6,418.8z M175.3,419.1l-0.8,0.8l0,0L175.3,419.1L175.3,419.1z M161.6,404.8l-2.1,2.1l8.6,8.6
			l2.1-2.1l0,0c0,0,0,0-0.1-0.1l0,0c-0.1-0.1-0.2-0.2-0.3-0.3l0,0c-0.1-0.1-0.3-0.3-0.4-0.4l0,0c-0.2-0.2-0.3-0.3-0.6-0.6l0,0
			c-0.2-0.2-0.4-0.4-0.7-0.7l0,0c-0.2-0.2-0.5-0.5-0.7-0.7l0,0c-0.3-0.3-0.5-0.5-0.8-0.8l0,0c-0.3-0.3-0.5-0.5-0.8-0.8l0,0
			c-0.3-0.3-0.5-0.5-0.8-0.8l0,0c-0.3-0.3-0.5-0.5-0.8-0.8l0,0c-0.3-0.3-0.5-0.5-0.7-0.7l0,0c-0.2-0.2-0.5-0.5-0.7-0.7l0,0
			c-0.2-0.2-0.4-0.4-0.6-0.6l0,0c-0.2-0.2-0.3-0.3-0.4-0.4l0,0C161.9,405,161.8,404.9,161.6,404.8L161.6,404.8
			C161.6,404.8,161.6,404.8,161.6,404.8L161.6,404.8L161.6,404.8z M149.4,392.6l-2.1,2.1l8.6,8.6l2.1-2.1l0,0c0,0,0,0-0.1-0.1l0,0
			c-0.1-0.1-0.2-0.2-0.3-0.3l0,0c-0.1-0.1-0.3-0.3-0.4-0.4l0,0c-0.2-0.2-0.3-0.3-0.6-0.6l0,0c-0.2-0.2-0.4-0.4-0.7-0.7l0,0
			c-0.2-0.2-0.5-0.5-0.7-0.7l0,0c-0.3-0.3-0.5-0.5-0.8-0.8l0,0c-0.3-0.3-0.5-0.5-0.8-0.8l0,0c-0.3-0.3-0.5-0.5-0.8-0.8l0,0
			c-0.3-0.3-0.5-0.5-0.8-0.8l0,0c-0.3-0.3-0.5-0.5-0.7-0.7l0,0c-0.2-0.2-0.5-0.5-0.7-0.7l0,0c-0.2-0.2-0.4-0.4-0.6-0.6l0,0
			c-0.2-0.2-0.3-0.3-0.4-0.4l0,0C149.6,392.8,149.5,392.7,149.4,392.6L149.4,392.6C149.4,392.6,149.4,392.6,149.4,392.6L149.4,392.6
			L149.4,392.6z M137.2,380.3l-2.1,2.1l8.6,8.6l2.1-2.1l0,0c0,0-0.1-0.1-0.4-0.4l0,0c-0.2-0.2-0.6-0.6-1-1l0,0
			c-0.4-0.4-0.9-0.9-1.4-1.4l0,0c-0.5-0.5-1-1-1.6-1.6l0,0c-0.5-0.5-1.1-1.1-1.6-1.6l0,0c-0.5-0.5-1-1-1.4-1.4l0,0
			c-0.4-0.4-0.7-0.7-1-1l0,0C137.3,380.5,137.2,380.3,137.2,380.3L137.2,380.3L137.2,380.3z M124.9,368.1l-2.1,2.1l8.6,8.6l2.1-2.1
			l0,0c0,0,0,0-0.1-0.1l0,0c-0.1-0.1-0.2-0.2-0.3-0.3l0,0c-0.1-0.1-0.3-0.3-0.4-0.4l0,0c-0.2-0.2-0.3-0.3-0.6-0.6l0,0
			c-0.2-0.2-0.4-0.4-0.7-0.7l0,0c-0.2-0.2-0.5-0.5-0.7-0.7l0,0c-0.3-0.3-0.5-0.5-0.8-0.8l0,0c-0.3-0.3-0.5-0.5-0.8-0.8l0,0
			c-0.3-0.3-0.5-0.5-0.8-0.8l0,0c-0.3-0.3-0.5-0.5-0.8-0.8l0,0c-0.3-0.3-0.5-0.5-0.7-0.7l0,0c-0.2-0.2-0.5-0.5-0.7-0.7l0,0
			c-0.2-0.2-0.4-0.4-0.6-0.6l0,0c-0.2-0.2-0.3-0.3-0.4-0.4l0,0C125.2,368.4,125.1,368.3,124.9,368.1L124.9,368.1
			C125,368.2,124.9,368.1,124.9,368.1L124.9,368.1L124.9,368.1z M112.7,355.9l-2.1,2.1l8.6,8.6l2.1-2.1l0,0c0,0-0.1-0.1-0.4-0.4l0,0
			c-0.2-0.2-0.6-0.6-1-1l0,0c-0.4-0.4-0.9-0.9-1.4-1.4l0,0c-0.5-0.5-1-1-1.6-1.6l0,0c-0.5-0.5-1.1-1.1-1.6-1.6l0,0
			c-0.5-0.5-1-1-1.4-1.4l0,0c-0.4-0.4-0.7-0.7-1-1l0,0C112.9,356,112.7,355.9,112.7,355.9L112.7,355.9L112.7,355.9z M100.5,343.7
			l-2.1,2.1l8.6,8.6l2.1-2.1l0,0c0,0,0,0-0.1-0.1l0,0c-0.1-0.1-0.2-0.2-0.3-0.3l0,0c-0.1-0.1-0.3-0.3-0.4-0.4l0,0
			c-0.2-0.2-0.3-0.3-0.6-0.6l0,0c-0.2-0.2-0.4-0.4-0.7-0.7l0,0c-0.2-0.2-0.5-0.5-0.7-0.7l0,0c-0.3-0.3-0.5-0.5-0.8-0.8l0,0
			c-0.3-0.3-0.5-0.5-0.8-0.8l0,0c-0.3-0.3-0.5-0.5-0.8-0.8l0,0c-0.3-0.3-0.5-0.5-0.8-0.8l0,0c-0.3-0.3-0.5-0.5-0.7-0.7l0,0
			c-0.2-0.2-0.5-0.5-0.7-0.7l0,0c-0.2-0.2-0.4-0.4-0.6-0.6l0,0c-0.2-0.2-0.3-0.3-0.4-0.4l0,0C100.7,343.9,100.7,343.8,100.5,343.7
			L100.5,343.7C100.5,343.7,100.5,343.7,100.5,343.7L100.5,343.7L100.5,343.7z"/>
	</g>
	<rect x="264.3" y="358.2" class="st0" width="213.1" height="138.1"/>
	<text transform="matrix(1 0 0 1 283.0529 429.4813)"><tspan x="0" y="0" style="font-family:'Roboto-Bold'; font-size:95px; letter-spacing:-1;">THE</tspan><tspan x="0.3" y="30.4" style="font-family:'Roboto-Bold'; font-size:37px;">SANDBOX</tspan><tspan x="39.5" y="60.8" style="font-family:'Roboto-Bold'; font-size:37px;">BLOG</tspan></text>
	<g>
		<path d="M71.4,397H60.6v29.5h-7.3V397H42.6v-5.9h28.8V397z"/>
		<path d="M103.3,426.5h-7.3v-15.2H81.9v15.2h-7.3v-35.4h7.3v14.3h14.2v-14.3h7.3V426.5z"/>
		<path d="M130,411.2h-14v9.5h16.4v5.9h-23.7v-35.4h23.7v5.9H116v8.4h14V411.2z"/>
		<path d="M50.3,438.8c0-0.5-0.2-0.9-0.6-1.2c-0.4-0.3-1.1-0.6-2-0.9c-1-0.3-1.8-0.6-2.3-0.9c-1.6-0.8-2.3-2-2.3-3.4
			c0-0.7,0.2-1.4,0.6-2c0.4-0.6,1-1,1.8-1.4c0.8-0.3,1.7-0.5,2.6-0.5c1,0,1.9,0.2,2.6,0.5c0.8,0.4,1.4,0.9,1.8,1.5
			c0.4,0.6,0.6,1.4,0.6,2.2h-2.8c0-0.6-0.2-1.1-0.6-1.5c-0.4-0.3-1-0.5-1.7-0.5c-0.7,0-1.2,0.1-1.6,0.4c-0.4,0.3-0.6,0.7-0.6,1.2
			c0,0.4,0.2,0.8,0.7,1.1c0.5,0.3,1.1,0.6,2,0.9c1.6,0.5,2.8,1.1,3.5,1.8c0.7,0.7,1.1,1.6,1.1,2.7c0,1.2-0.5,2.1-1.4,2.8
			c-0.9,0.7-2.1,1-3.6,1c-1.1,0-2-0.2-2.9-0.6c-0.9-0.4-1.5-0.9-2-1.6c-0.5-0.7-0.7-1.5-0.7-2.3h2.8c0,1.5,0.9,2.3,2.7,2.3
			c0.7,0,1.2-0.1,1.6-0.4C50.1,439.7,50.3,439.3,50.3,438.8z"/>
		<path d="M63.2,439.6h-5l-0.9,2.8h-3l5.1-13.8H62l5.2,13.8h-3L63.2,439.6z M59,437.3h3.4l-1.7-5.2L59,437.3z"/>
		<path d="M80.1,442.4h-2.8l-5.5-9.1v9.1h-2.8v-13.8h2.8l5.5,9.1v-9.1h2.8V442.4z"/>
		<path d="M82.9,442.4v-13.8h4.2c1.2,0,2.3,0.3,3.2,0.8c1,0.5,1.7,1.3,2.2,2.3c0.5,1,0.8,2.1,0.8,3.4v0.6c0,1.3-0.3,2.4-0.8,3.4
			c-0.5,1-1.3,1.8-2.2,2.3c-1,0.5-2,0.8-3.2,0.8H82.9z M85.8,430.9v9.2h1.4c1.1,0,2-0.4,2.5-1.1c0.6-0.7,0.9-1.8,0.9-3.1v-0.7
			c0-1.4-0.3-2.5-0.9-3.2c-0.6-0.7-1.4-1.1-2.5-1.1H85.8z"/>
		<path d="M95.9,442.4v-13.8h4.8c1.7,0,2.9,0.3,3.8,1s1.3,1.6,1.3,2.8c0,0.7-0.2,1.3-0.5,1.8c-0.3,0.5-0.8,0.9-1.4,1.1
			c0.7,0.2,1.3,0.5,1.7,1.1c0.4,0.5,0.6,1.2,0.6,2c0,1.3-0.4,2.3-1.3,3s-2,1-3.6,1H95.9z M98.7,434.4h2.1c1.4,0,2.1-0.6,2.1-1.7
			c0-0.6-0.2-1.1-0.5-1.3c-0.4-0.3-0.9-0.4-1.7-0.4h-2V434.4z M98.7,436.4v3.7h2.4c0.7,0,1.2-0.2,1.6-0.5c0.4-0.3,0.6-0.8,0.6-1.3
			c0-1.3-0.7-1.9-2-1.9H98.7z"/>
		<path d="M120,435.8c0,1.4-0.2,2.5-0.7,3.6c-0.5,1-1.2,1.8-2.1,2.4c-0.9,0.6-1.9,0.8-3.1,0.8c-1.1,0-2.2-0.3-3.1-0.8
			c-0.9-0.5-1.6-1.3-2.1-2.4c-0.5-1-0.7-2.2-0.7-3.5v-0.7c0-1.4,0.2-2.5,0.7-3.6c0.5-1,1.2-1.8,2.1-2.4s1.9-0.8,3.1-0.8
			s2.2,0.3,3.1,0.8c0.9,0.6,1.6,1.3,2.1,2.4c0.5,1,0.7,2.2,0.7,3.6V435.8z M117.1,435.2c0-1.4-0.3-2.5-0.8-3.3
			c-0.5-0.8-1.3-1.1-2.2-1.1c-1,0-1.7,0.4-2.2,1.1c-0.5,0.7-0.8,1.8-0.8,3.3v0.7c0,1.4,0.3,2.5,0.8,3.3c0.5,0.8,1.3,1.2,2.2,1.2
			c1,0,1.7-0.4,2.2-1.1c0.5-0.7,0.8-1.8,0.8-3.3V435.2z"/>
		<path d="M127.1,433.4l2.6-4.7h3.3l-4,6.8l4.1,6.9h-3.3l-2.6-4.8l-2.6,4.8h-3.3l4.1-6.9l-4-6.8h3.3L127.1,433.4z"/>
		<path d="M63.8,458.3v-13.8h4.8c1.7,0,2.9,0.3,3.8,1s1.3,1.6,1.3,2.8c0,0.7-0.2,1.3-0.5,1.8c-0.3,0.5-0.8,0.9-1.4,1.1
			c0.7,0.2,1.3,0.5,1.7,1.1c0.4,0.5,0.6,1.2,0.6,2c0,1.3-0.4,2.3-1.3,3c-0.8,0.7-2,1-3.6,1H63.8z M66.7,450.3h2.1
			c1.4,0,2.1-0.6,2.1-1.7c0-0.6-0.2-1.1-0.5-1.3c-0.4-0.3-0.9-0.4-1.7-0.4h-2V450.3z M66.7,452.3v3.7h2.4c0.7,0,1.2-0.2,1.6-0.5
			c0.4-0.3,0.6-0.8,0.6-1.3c0-1.3-0.7-1.9-2-1.9H66.7z"/>
		<path d="M79.4,456h6v2.3h-8.9v-13.8h2.8V456z"/>
		<path d="M98.2,451.7c0,1.4-0.2,2.5-0.7,3.6c-0.5,1-1.2,1.8-2.1,2.4c-0.9,0.6-1.9,0.8-3.1,0.8c-1.1,0-2.2-0.3-3.1-0.8
			c-0.9-0.5-1.6-1.3-2.1-2.4c-0.5-1-0.7-2.2-0.7-3.5v-0.7c0-1.4,0.2-2.5,0.7-3.6c0.5-1,1.2-1.8,2.1-2.4c0.9-0.6,1.9-0.8,3.1-0.8
			s2.2,0.3,3.1,0.8c0.9,0.6,1.6,1.3,2.1,2.4c0.5,1,0.7,2.2,0.7,3.6V451.7z M95.3,451.1c0-1.4-0.3-2.5-0.8-3.3
			c-0.5-0.8-1.3-1.1-2.2-1.1c-1,0-1.7,0.4-2.2,1.1c-0.5,0.7-0.8,1.8-0.8,3.3v0.7c0,1.4,0.3,2.5,0.8,3.3c0.5,0.8,1.3,1.2,2.2,1.2
			c1,0,1.7-0.4,2.2-1.1c0.5-0.7,0.8-1.8,0.8-3.3V451.1z"/>
		<path d="M111.5,456.6c-0.5,0.6-1.2,1.1-2.2,1.4c-0.9,0.3-2,0.5-3.1,0.5c-1.2,0-2.2-0.3-3.1-0.8c-0.9-0.5-1.6-1.3-2.1-2.3
			c-0.5-1-0.7-2.2-0.8-3.5V451c0-1.4,0.2-2.6,0.7-3.6c0.5-1,1.1-1.8,2-2.3c0.9-0.5,1.9-0.8,3.1-0.8c1.6,0,2.9,0.4,3.8,1.2
			c0.9,0.8,1.5,1.9,1.6,3.4h-2.8c-0.1-0.8-0.4-1.4-0.8-1.7c-0.4-0.4-1-0.5-1.8-0.5c-1,0-1.7,0.4-2.2,1.1c-0.5,0.7-0.8,1.8-0.8,3.2
			v0.9c0,1.4,0.3,2.5,0.8,3.3c0.5,0.7,1.4,1.1,2.4,1.1c1.1,0,1.8-0.2,2.3-0.7v-2.4h-2.6v-2.1h5.4V456.6z"/>
	</g>
</g>
</svg>
